<?xml version="1.0" encoding="UTF-8"?>
<svg id="Layer_2" data-name="Layer 2" xmlns="http://www.w3.org/2000/svg" viewBox="0 0 249.15 32.26">
  <defs>
    <style>
      .cls-1 {
        fill: #b97343;
      }

      .cls-1, .cls-2, .cls-3, .cls-4, .cls-5, .cls-6, .cls-7, .cls-8, .cls-9, .cls-10 {
        stroke-width: 0px;
      }

      .cls-2 {
        fill: #e8a24f;
      }

      .cls-3 {
        fill: #f7c650;
      }

      .cls-4 {
        fill: #043956;
      }

      .cls-5 {
        fill: #053956;
      }

      .cls-6 {
        fill: #484848;
      }

      .cls-7 {
        fill: #49a88a;
      }

      .cls-8 {
        fill: #5299c5;
      }

      .cls-9 {
        fill: #64bd6b;
      }

      .cls-10 {
        fill: #183660;
      }
    </style>
  </defs>
  <g id="Layer_1-2" data-name="Layer 1">
    <g>
      <g>
        <polygon class="cls-10" points="112.56 25.41 112.55 25.41 111.44 22.57 110.64 22.57 110.64 26.27 111.14 26.27 111.14 23.18 111.15 23.18 112.37 26.27 112.7 26.27 113.93 23.18 113.94 23.18 113.94 26.27 114.45 26.27 114.45 22.57 113.65 22.57 112.56 25.41"/>
        <rect class="cls-10" x="115.33" y="23.79" width=".49" height="2.48"/>
        <path class="cls-10" d="M115.57,22.58c-.09,0-.17.03-.23.09s-.09.14-.09.23.03.16.09.22c.06.06.14.09.23.09s.17-.03.23-.09c.06-.06.1-.13.1-.22s-.03-.17-.1-.23c-.06-.06-.14-.09-.23-.09"/>
        <path class="cls-10" d="M118.66,24.02c-.08-.09-.17-.16-.29-.22-.11-.05-.25-.08-.41-.08-.09,0-.18.01-.26.04-.08.02-.16.06-.23.1-.07.04-.13.09-.19.15-.05.06-.1.12-.13.19h-.02c0-.05,0-.12,0-.2,0-.08,0-.15-.02-.21h-.47c0,.08.01.17.02.28,0,.1,0,.19,0,.26v1.94h.49v-1.32c0-.25.06-.44.19-.59.12-.15.28-.22.48-.22.11,0,.21.02.28.06.07.04.13.1.17.17.04.07.07.15.09.24.02.09.02.19.02.29v1.37h.49v-1.54c0-.14-.02-.27-.06-.39-.04-.12-.09-.23-.17-.32"/>
        <rect class="cls-10" x="119.72" y="23.79" width=".49" height="2.48"/>
        <path class="cls-10" d="M119.97,22.58c-.09,0-.17.03-.23.09s-.09.14-.09.23.03.16.09.22c.06.06.14.09.23.09s.17-.03.23-.09c.06-.06.1-.13.1-.22s-.03-.17-.1-.23c-.06-.06-.14-.09-.23-.09"/>
        <path class="cls-10" d="M122.53,25.05c-.07-.06-.16-.11-.26-.14-.1-.04-.21-.07-.33-.1-.19-.04-.33-.09-.42-.14-.09-.05-.14-.13-.14-.23,0-.06.01-.11.04-.15.03-.04.06-.07.1-.1.04-.03.09-.04.15-.06.06-.01.11-.02.17-.02.13,0,.24.03.34.09.1.06.18.13.24.22l.34-.29c-.09-.13-.22-.23-.38-.3-.17-.07-.34-.11-.51-.11-.12,0-.23.01-.34.05-.11.03-.21.07-.3.14-.09.06-.16.14-.21.23-.05.1-.08.21-.08.34,0,.11.02.21.07.29.04.08.1.14.17.2.07.05.15.09.23.12.09.03.17.05.25.07.21.05.37.1.48.16.11.06.16.14.16.26,0,.07-.01.13-.04.17-.03.04-.07.08-.11.11-.05.03-.1.05-.16.06-.06.01-.12.02-.18.02-.14,0-.27-.03-.38-.1-.12-.07-.21-.15-.27-.25l-.35.3c.12.15.27.26.45.33.18.07.36.11.55.11.13,0,.25-.01.37-.04.12-.03.22-.07.32-.14.09-.06.17-.15.22-.25.06-.1.08-.22.08-.37,0-.11-.02-.2-.06-.28-.04-.08-.1-.15-.18-.21"/>
        <path class="cls-10" d="M123.94,23.08h-.49v.71h-.48v.4h.48v1.34c0,.26.06.45.19.58.12.13.3.19.54.19.08,0,.15,0,.22-.02.07-.01.14-.03.2-.05l-.02-.4s-.09.03-.14.04c-.05,0-.1.01-.15.01-.12,0-.21-.03-.27-.1-.06-.06-.08-.17-.08-.32v-1.29h.66v-.4h-.66v-.71Z"/>
        <path class="cls-10" d="M125.89,23.86c-.13.09-.24.21-.31.35h-.02c0-.05,0-.12,0-.2,0-.08,0-.15-.02-.22h-.47c0,.08.01.17.02.28,0,.1,0,.19,0,.26v1.94h.49v-1.3c0-.1.01-.2.04-.3.03-.1.07-.18.13-.25.06-.07.13-.13.22-.18.09-.04.19-.07.31-.07.08,0,.15,0,.22.03l.02-.45c-.05-.01-.12-.02-.19-.02-.17,0-.32.04-.45.13"/>
        <path class="cls-10" d="M127.95,25.74h-.01l-.77-1.94h-.55l1.06,2.48-.16.41c-.05.13-.11.23-.17.31-.06.07-.16.11-.29.11-.08,0-.16-.01-.25-.04l-.05.43c.06.01.11.02.16.03s.11,0,.16,0c.12,0,.23-.02.32-.05.09-.03.17-.08.23-.13.07-.06.12-.13.17-.21.05-.08.09-.18.14-.28l1.2-3.06h-.52l-.68,1.94Z"/>
        <path class="cls-10" d="M133.06,24.09c-.12-.11-.26-.2-.43-.27-.16-.06-.34-.1-.53-.1s-.36.03-.53.1c-.16.06-.31.15-.42.27-.12.11-.21.25-.28.41-.07.16-.1.33-.1.53s.03.37.1.53c.07.16.16.3.28.42.12.12.26.21.42.27.16.06.34.1.53.1s.36-.03.53-.1c.16-.06.31-.16.43-.27.12-.12.21-.26.28-.42.07-.16.1-.34.1-.53s-.03-.37-.1-.53c-.07-.16-.16-.29-.28-.41M132.88,25.37c-.04.11-.09.2-.16.29-.07.08-.16.15-.26.2-.1.05-.22.07-.35.07s-.25-.02-.35-.07c-.1-.05-.19-.11-.26-.2-.07-.08-.12-.18-.16-.29-.04-.11-.06-.22-.06-.34s.02-.23.06-.34c.04-.11.09-.2.16-.28.07-.08.16-.15.26-.2.1-.05.22-.07.35-.07s.25.02.35.07c.1.05.19.11.26.2.07.08.12.18.16.28.04.11.06.22.06.34s-.02.23-.06.34"/>
        <path class="cls-10" d="M134.72,22.34c-.12.05-.21.12-.29.21-.08.09-.13.2-.16.32-.03.12-.05.26-.05.4v.52h-.49v.4h.49v2.07h.49v-2.07h.57v-.4h-.57v-.52c0-.08,0-.15.02-.22.01-.07.03-.14.06-.19.03-.06.08-.1.13-.13.06-.03.13-.05.23-.05.05,0,.09,0,.13.01.04,0,.08.02.12.03l.06-.42c-.09-.02-.19-.04-.31-.04-.17,0-.31.03-.43.08"/>
        <polygon class="cls-10" points="137.72 24.58 139.46 24.58 139.46 24.13 137.72 24.13 137.72 23.03 139.57 23.03 139.57 22.57 137.2 22.57 137.2 26.27 139.65 26.27 139.65 25.81 137.72 25.81 137.72 24.58"/>
        <path class="cls-10" d="M142.3,24.02c-.08-.09-.17-.16-.29-.22-.12-.05-.25-.08-.41-.08-.09,0-.18.01-.26.04-.08.02-.16.06-.23.1-.07.04-.13.09-.19.15-.05.06-.1.12-.13.19h-.02c0-.05,0-.12,0-.2,0-.08,0-.15-.02-.21h-.47c0,.08.01.17.02.28,0,.1,0,.19,0,.26v1.94h.49v-1.32c0-.25.06-.44.18-.59.12-.15.28-.22.48-.22.12,0,.21.02.28.06.07.04.13.1.17.17.04.07.07.15.09.24.02.09.02.19.02.29v1.37h.49v-1.54c0-.14-.02-.27-.06-.39-.04-.12-.09-.23-.17-.32"/>
        <polygon class="cls-10" points="144.25 25.74 144.24 25.74 143.52 23.79 142.97 23.79 143.98 26.27 144.52 26.27 145.51 23.79 144.99 23.79 144.25 25.74"/>
        <path class="cls-10" d="M146.23,22.58c-.09,0-.17.03-.23.09-.06.06-.09.14-.09.23s.03.16.09.22c.06.06.14.09.23.09s.17-.03.23-.09c.06-.06.1-.13.1-.22s-.03-.17-.1-.23c-.06-.06-.14-.09-.23-.09"/>
        <rect class="cls-10" x="145.99" y="23.79" width=".49" height="2.48"/>
        <path class="cls-10" d="M148.12,23.86c-.13.09-.24.21-.31.35h-.02c0-.05,0-.12,0-.2,0-.08,0-.15-.02-.22h-.46c0,.08.01.17.02.28,0,.1,0,.19,0,.26v1.94h.49v-1.3c0-.1.01-.2.04-.3.03-.1.07-.18.13-.25.06-.07.13-.13.22-.18.09-.04.19-.07.31-.07.08,0,.15,0,.22.03l.02-.45c-.05-.01-.12-.02-.19-.02-.17,0-.32.04-.45.13"/>
        <path class="cls-10" d="M151.26,24.09c-.12-.11-.26-.2-.43-.27-.16-.06-.34-.1-.53-.1s-.36.03-.53.1c-.16.06-.31.15-.42.27-.12.11-.21.25-.28.41-.07.16-.1.33-.1.53s.03.37.1.53c.07.16.16.3.28.42.12.12.26.21.42.27.16.06.34.1.53.1s.36-.03.53-.1c.16-.06.31-.16.43-.27.12-.12.21-.26.28-.42.07-.16.1-.34.1-.53s-.03-.37-.1-.53c-.07-.16-.16-.29-.28-.41M151.07,25.37c-.04.11-.09.2-.16.29-.07.08-.16.15-.26.2-.1.05-.22.07-.35.07s-.25-.02-.35-.07c-.1-.05-.19-.11-.26-.2-.07-.08-.12-.18-.16-.29-.04-.11-.06-.22-.06-.34s.02-.23.06-.34c.04-.11.09-.2.16-.28.07-.08.16-.15.26-.2.1-.05.22-.07.35-.07s.25.02.35.07c.1.05.19.11.26.2.07.08.12.18.16.28.04.11.05.22.05.34s-.02.23-.05.34"/>
        <path class="cls-10" d="M154.3,24.02c-.08-.09-.17-.16-.29-.22-.12-.05-.25-.08-.41-.08-.09,0-.18.01-.26.04-.08.02-.16.06-.23.1-.07.04-.13.09-.19.15-.05.06-.1.12-.13.19h-.02c0-.05,0-.12,0-.2,0-.08,0-.15-.02-.21h-.46c0,.08.01.17.02.28,0,.1,0,.19,0,.26v1.94h.49v-1.32c0-.25.06-.44.19-.59.12-.15.28-.22.48-.22.11,0,.21.02.28.06.07.04.13.1.17.17.04.07.07.15.09.24.02.09.02.19.02.29v1.37h.49v-1.54c0-.14-.02-.27-.05-.39-.04-.12-.09-.23-.17-.32"/>
        <path class="cls-10" d="M158.94,24.02c-.08-.09-.17-.16-.29-.22-.12-.05-.25-.08-.41-.08-.18,0-.34.04-.49.13-.15.09-.27.21-.35.37-.08-.18-.18-.3-.32-.38-.13-.08-.28-.11-.45-.11-.19,0-.35.05-.49.14-.14.09-.24.2-.3.34h-.02c0-.05,0-.12,0-.2,0-.08,0-.15-.02-.21h-.46c0,.08.01.17.02.28,0,.1,0,.19,0,.26v1.94h.49v-1.32c0-.25.06-.44.18-.59.12-.15.27-.22.45-.22.1,0,.18.02.25.05.07.03.12.08.16.14.04.06.07.13.09.21.02.08.03.17.03.27v1.47h.49v-1.34c0-.1.01-.19.03-.29.02-.09.06-.18.11-.25.05-.08.12-.14.2-.18.08-.05.18-.07.29-.07s.2.02.27.06c.07.04.13.1.17.17.04.07.07.15.09.24.02.09.03.19.03.29v1.37h.49v-1.54c0-.14-.02-.27-.06-.39-.04-.12-.09-.23-.17-.32"/>
        <path class="cls-10" d="M161.98,24.07c-.1-.11-.23-.2-.38-.26-.15-.06-.31-.09-.49-.09s-.35.03-.51.1c-.16.06-.29.15-.41.27s-.21.25-.27.42c-.06.16-.1.34-.1.53s.03.37.1.53c.07.16.16.3.27.41.11.11.25.2.41.26.16.06.33.09.52.09.22,0,.42-.04.6-.12.18-.08.34-.21.47-.39l-.34-.28c-.07.1-.17.19-.29.27-.12.07-.27.11-.43.11-.11,0-.21-.02-.31-.06-.1-.04-.18-.09-.25-.16-.07-.07-.13-.15-.18-.24-.04-.09-.07-.19-.07-.29h1.97s0-.06,0-.08v-.08c0-.2-.03-.38-.08-.54-.06-.16-.14-.29-.24-.4M160.33,24.81c0-.1.03-.19.08-.27.04-.09.1-.16.17-.22.07-.06.15-.11.24-.15.09-.04.19-.05.29-.05.11,0,.21.02.3.05.09.04.16.09.21.15.06.06.1.14.13.22.03.09.05.18.05.27h-1.47Z"/>
        <path class="cls-10" d="M164.97,24.02c-.08-.09-.17-.16-.29-.22-.12-.05-.25-.08-.41-.08-.09,0-.18.01-.26.04-.08.02-.16.06-.23.1-.07.04-.13.09-.19.15-.05.06-.1.12-.13.19h-.02c0-.05,0-.12,0-.2,0-.08,0-.15-.02-.21h-.46c0,.08.01.17.02.28,0,.1,0,.19,0,.26v1.94h.49v-1.32c0-.25.06-.44.19-.59.12-.15.28-.22.48-.22.12,0,.21.02.28.06.07.04.13.1.17.17.04.07.07.15.09.24.02.09.02.19.02.29v1.37h.49v-1.54c0-.14-.02-.27-.06-.39-.04-.12-.09-.23-.17-.32"/>
        <path class="cls-10" d="M166.58,23.08h-.49v.71h-.48v.4h.48v1.34c0,.26.06.45.19.58.12.13.3.19.54.19.08,0,.15,0,.22-.02.07-.01.14-.03.2-.05l-.02-.4s-.09.03-.14.04c-.05,0-.1.01-.15.01-.12,0-.21-.03-.27-.1-.06-.06-.08-.17-.08-.32v-1.29h.66v-.4h-.66v-.71Z"/>
        <polygon class="cls-10" points="172.31 25.52 172.29 25.52 171.43 22.57 170.86 22.57 170 25.52 169.99 25.52 169.17 22.57 168.61 22.57 169.7 26.27 170.24 26.27 171.14 23.3 171.15 23.3 172.04 26.27 172.58 26.27 173.67 22.57 173.12 22.57 172.31 25.52"/>
        <path class="cls-10" d="M175.97,25.78v-1.08c0-.14-.02-.26-.06-.38-.04-.12-.1-.22-.19-.31-.08-.09-.19-.16-.32-.21-.13-.05-.28-.08-.46-.08-.2,0-.39.03-.57.1-.18.07-.32.16-.45.27l.26.31c.08-.08.19-.15.31-.21.12-.05.25-.08.39-.08.18,0,.33.04.44.13.11.09.17.23.17.41v.07c-.21,0-.42,0-.62.03-.21.02-.39.05-.55.11-.16.06-.3.14-.4.25-.1.11-.15.26-.15.45,0,.14.03.26.09.36.06.1.13.18.22.23.09.06.18.1.29.13.11.03.21.04.31.04.19,0,.35-.04.49-.11.14-.07.25-.18.34-.31h.02c0,.12.01.24.04.36h.44c-.01-.06-.02-.13-.03-.23,0-.09,0-.18,0-.26M175.5,25.22c0,.21-.06.38-.19.52-.12.14-.3.21-.53.21-.06,0-.12,0-.18-.02-.06-.01-.11-.03-.16-.07-.05-.03-.09-.07-.12-.12-.03-.05-.04-.11-.04-.18,0-.1.03-.19.1-.25.07-.06.16-.11.26-.14.11-.03.22-.05.36-.06.13-.01.26-.02.38-.02h.12v.13Z"/>
        <path class="cls-10" d="M177.29,23.08h-.49v.71h-.47v.4h.47v1.34c0,.26.06.45.19.58.12.13.3.19.54.19.08,0,.15,0,.22-.02.07-.01.14-.03.2-.05l-.02-.4s-.09.03-.14.04c-.05,0-.1.01-.15.01-.12,0-.21-.03-.27-.1-.06-.06-.08-.17-.08-.32v-1.29h.66v-.4h-.66v-.71Z"/>
        <path class="cls-10" d="M180.44,24.07c-.1-.11-.23-.2-.38-.26-.15-.06-.31-.09-.49-.09s-.35.03-.51.1c-.16.06-.29.15-.41.27s-.21.25-.27.42c-.07.16-.1.34-.1.53s.03.37.1.53c.07.16.16.3.27.41.11.11.25.2.41.26.16.06.33.09.52.09.22,0,.42-.04.6-.12.18-.08.34-.21.47-.39l-.34-.28c-.07.1-.17.19-.29.27-.12.07-.27.11-.43.11-.11,0-.21-.02-.31-.06-.1-.04-.18-.09-.25-.16-.07-.07-.13-.15-.18-.24-.04-.09-.07-.19-.07-.29h1.97s0-.06,0-.08v-.08c0-.2-.03-.38-.08-.54-.06-.16-.14-.29-.24-.4M178.79,24.81c0-.1.03-.19.08-.27.04-.09.1-.16.17-.22.07-.06.15-.11.24-.15.09-.04.19-.05.29-.05.11,0,.21.02.3.05.09.04.16.09.21.15.06.06.1.14.13.22.03.09.05.18.05.27h-1.47Z"/>
        <path class="cls-10" d="M182.23,23.86c-.13.09-.24.21-.31.35h-.02c0-.05,0-.12,0-.2s0-.15-.02-.22h-.46c0,.08.01.17.02.28,0,.1,0,.19,0,.26v1.94h.49v-1.3c0-.1.01-.2.04-.3.03-.1.07-.18.13-.25.06-.07.13-.13.22-.18.09-.04.19-.07.31-.07.08,0,.15,0,.23.03l.02-.45c-.05-.01-.12-.02-.19-.02-.17,0-.32.04-.45.13"/>
        <path class="cls-10" d="M187.8,24.29h-.57l-.47.78-.74-.76c.1-.05.2-.1.3-.17.1-.06.18-.13.25-.21.07-.08.13-.17.18-.27.04-.1.06-.21.06-.33,0-.14-.03-.27-.08-.38-.05-.11-.12-.2-.21-.27-.09-.07-.19-.13-.3-.16-.11-.04-.24-.06-.37-.06s-.25.02-.37.06c-.12.04-.22.09-.32.17-.09.08-.17.17-.22.28-.05.11-.08.24-.08.39,0,.17.04.32.12.46.08.14.18.27.3.39-.11.05-.21.11-.31.17-.1.07-.19.14-.27.23-.08.09-.14.19-.19.3-.05.11-.07.23-.07.37,0,.17.03.32.1.45.06.13.15.24.26.33.11.09.24.16.38.2.15.05.3.07.46.07.26,0,.47-.05.65-.15.18-.1.33-.23.47-.41l.46.49h.68l-.85-.87.71-1.1ZM185.52,23.03c.09-.09.21-.14.35-.14s.25.04.34.14c.09.09.13.2.13.33,0,.08-.02.15-.05.22-.03.07-.08.13-.14.18-.05.06-.12.1-.19.15-.07.04-.15.08-.22.11-.04-.04-.08-.08-.13-.13-.04-.05-.08-.1-.12-.16-.04-.06-.06-.12-.09-.18-.02-.06-.03-.12-.03-.18,0-.15.05-.26.14-.36M186.13,25.81c-.12.08-.27.12-.45.12-.09,0-.17-.01-.26-.04-.08-.03-.16-.07-.22-.13-.06-.06-.12-.12-.15-.2-.04-.08-.06-.17-.06-.27,0-.19.05-.34.16-.46.11-.11.25-.21.43-.29l.88.92c-.1.15-.21.27-.33.35"/>
        <path class="cls-10" d="M190.84,22.57l-1.6,3.7h.57l.37-.91h1.75l.38.91h.58l-1.59-3.7h-.47ZM190.36,24.91l.69-1.73.69,1.73h-1.38Z"/>
        <path class="cls-10" d="M195.33,24.19h-.01c-.09-.16-.22-.27-.38-.35-.16-.08-.33-.12-.51-.12-.19,0-.36.03-.51.1-.15.07-.28.16-.39.28-.11.12-.19.25-.25.41-.06.16-.09.32-.09.5s.03.34.09.5c.06.15.14.29.25.41.11.11.24.21.39.27.15.07.33.1.51.1.18,0,.34-.04.5-.11.16-.07.28-.18.37-.32h.01v.32c0,.13-.01.25-.04.36-.03.11-.08.21-.15.29-.07.08-.16.15-.27.19-.11.05-.25.07-.41.07s-.34-.04-.5-.11c-.16-.07-.3-.17-.4-.29l-.31.38c.16.14.34.25.56.33.22.08.43.12.65.12.26,0,.47-.04.65-.11.17-.08.32-.18.42-.31.11-.13.19-.27.23-.44.04-.16.07-.34.07-.52v-2.35h-.48v.4ZM195.29,25.35c-.04.11-.1.2-.17.28-.07.08-.16.14-.27.19s-.22.07-.35.07-.25-.02-.35-.07c-.1-.05-.19-.11-.26-.19-.07-.08-.13-.17-.16-.28-.04-.1-.05-.21-.05-.33s.02-.23.05-.34c.04-.11.09-.2.16-.28.07-.08.16-.14.26-.19.1-.05.22-.07.35-.07s.24.02.34.07c.1.05.19.11.27.19.07.08.13.17.17.28.04.1.06.22.06.33s-.02.24-.06.34"/>
        <path class="cls-10" d="M197.43,23.86c-.13.09-.24.21-.31.35h-.02c0-.05,0-.12,0-.2,0-.08,0-.15-.02-.22h-.46c0,.08.01.17.02.28,0,.1,0,.19,0,.26v1.94h.49v-1.3c0-.1.01-.2.04-.3.03-.1.07-.18.13-.25.06-.07.13-.13.22-.18.09-.04.19-.07.31-.07.08,0,.15,0,.23.03l.02-.45c-.05-.01-.12-.02-.19-.02-.17,0-.32.04-.45.13"/>
        <rect class="cls-10" x="198.54" y="23.79" width=".49" height="2.48"/>
        <path class="cls-10" d="M198.78,22.58c-.09,0-.17.03-.23.09s-.09.14-.09.23.03.16.09.22c.06.06.14.09.23.09s.17-.03.23-.09c.06-.06.1-.13.1-.22s-.03-.17-.1-.23c-.07-.06-.14-.09-.23-.09"/>
        <path class="cls-10" d="M201.4,25.85c-.1.05-.22.07-.34.07s-.24-.02-.34-.07c-.1-.05-.19-.11-.26-.2-.07-.08-.12-.18-.16-.28-.04-.11-.05-.22-.05-.34s.02-.23.05-.34c.04-.11.09-.2.16-.28.07-.08.15-.15.25-.2.1-.05.21-.07.34-.07.12,0,.23.03.33.08.11.05.18.12.23.2l.36-.29c-.1-.13-.24-.23-.41-.3-.17-.07-.35-.1-.52-.1-.19,0-.36.03-.53.09-.16.06-.3.15-.42.27-.12.12-.21.25-.28.41-.07.16-.1.34-.1.53s.03.38.1.54c.07.16.16.3.28.41.12.11.26.2.42.26.16.06.34.09.53.09s.38-.03.53-.1c.16-.07.29-.16.39-.28l-.33-.3c-.07.08-.15.15-.25.2"/>
        <path class="cls-10" d="M204.66,25.74v-1.94h-.49v1.32c0,.25-.06.44-.18.59-.12.15-.28.22-.48.22-.11,0-.21-.02-.28-.06-.07-.04-.13-.1-.17-.17-.04-.07-.07-.15-.09-.24-.02-.09-.02-.19-.02-.29v-1.37h-.49v1.54c0,.14.02.27.06.39.04.12.09.23.17.32.07.09.17.16.29.22.12.05.25.08.42.08.18,0,.35-.05.49-.14.15-.09.25-.2.32-.34h0c0,.05,0,.12,0,.2,0,.08,0,.15.02.21h.47c0-.08-.01-.17-.02-.28,0-.1,0-.19,0-.26"/>
        <rect class="cls-10" x="205.52" y="22.32" width=".49" height="3.95"/>
        <path class="cls-10" d="M207.42,23.08h-.49v.71h-.47v.4h.47v1.34c0,.26.06.45.19.58.12.13.3.19.54.19.08,0,.15,0,.22-.02.07-.01.14-.03.2-.05l-.02-.4s-.09.03-.14.04c-.05,0-.1.01-.15.01-.12,0-.21-.03-.27-.1-.06-.06-.08-.17-.08-.32v-1.29h.66v-.4h-.66v-.71Z"/>
        <path class="cls-10" d="M210.77,25.74v-1.94h-.49v1.32c0,.25-.06.44-.18.59-.12.15-.28.22-.48.22-.11,0-.21-.02-.28-.06-.07-.04-.13-.1-.17-.17-.04-.07-.07-.15-.09-.24-.02-.09-.02-.19-.02-.29v-1.37h-.49v1.54c0,.14.02.27.06.39.04.12.09.23.17.32.07.09.17.16.29.22.12.05.25.08.42.08.18,0,.35-.05.49-.14.15-.09.25-.2.32-.34h.01c0,.05,0,.12,0,.2,0,.08,0,.15.02.21h.47c0-.08-.01-.17-.02-.28,0-.1,0-.19,0-.26"/>
        <path class="cls-10" d="M212.41,23.86c-.13.09-.24.21-.31.35h-.02c0-.05,0-.12,0-.2s0-.15-.02-.22h-.46c0,.08.01.17.02.28,0,.1,0,.19,0,.26v1.94h.49v-1.3c0-.1.01-.2.04-.3.03-.1.07-.18.13-.25.06-.07.13-.13.22-.18.09-.04.19-.07.31-.07.08,0,.15,0,.22.03l.02-.45c-.05-.01-.12-.02-.19-.02-.17,0-.32.04-.45.13"/>
        <path class="cls-10" d="M215.65,24.48c-.06-.16-.14-.29-.24-.4-.1-.11-.23-.2-.38-.26-.15-.06-.31-.09-.5-.09s-.35.03-.51.1c-.16.06-.29.15-.41.27-.11.11-.21.25-.27.42-.07.16-.1.34-.1.53s.03.37.1.53c.07.16.16.3.27.41.11.11.25.2.41.26.16.06.33.09.52.09.22,0,.42-.04.6-.12.18-.08.34-.21.47-.39l-.34-.28c-.07.1-.17.19-.29.27-.12.07-.27.11-.43.11-.11,0-.21-.02-.31-.06-.1-.04-.18-.09-.25-.16-.07-.07-.13-.15-.18-.24-.04-.09-.07-.19-.07-.29h1.97s0-.06,0-.08v-.08c0-.2-.03-.38-.08-.54M213.76,24.81c0-.1.03-.19.08-.27.04-.09.1-.16.17-.22.07-.06.15-.11.24-.15.09-.04.19-.05.29-.05.11,0,.21.02.3.05.09.04.16.09.21.15.06.06.1.14.13.22.03.09.05.18.05.27h-1.47Z"/>
        <path class="cls-10" d="M182.16,11.38h-.83v-.27c0-.37.34-.51.7-.51v-.79c-.15,0-.37.04-.44.05-.32.05-.57.19-.76.42-.22.26-.32.61-.32,1v.87h1.65v-.76Z"/>
        <path class="cls-10" d="M177.72,12.26c.2,0,.37-.07.51-.21.14-.14.21-.31.21-.51s-.07-.38-.21-.51c-.27-.27-.74-.28-1.02,0-.14.14-.21.31-.21.51s.07.36.21.51c.14.14.31.21.51.21"/>
        <path class="cls-10" d="M175.88,12.26c.19,0,.36-.07.5-.21.14-.14.21-.31.21-.51s-.07-.38-.21-.51c-.29-.29-.74-.27-1.02,0-.14.14-.21.31-.21.51,0,.19.07.36.21.51.14.14.31.21.51.21"/>
        <path class="cls-10" d="M200.95,12.26c.2,0,.37-.07.51-.21.14-.14.21-.32.21-.51,0-.2-.07-.38-.21-.51-.27-.28-.73-.28-1.02,0-.14.14-.21.31-.21.51s.07.37.21.51c.14.14.31.21.51.21"/>
        <path class="cls-10" d="M199.1,12.26c.19,0,.36-.07.5-.21.14-.15.21-.31.21-.51s-.07-.38-.21-.51c-.28-.28-.75-.27-1.02,0-.14.14-.21.31-.21.51,0,.19.07.36.21.51.14.14.31.21.51.21"/>
        <path class="cls-10" d="M203.68,18.69c.35-.3.58-.7.68-1.17.01-.07.04-.5.04-.5l.02-4.03h-1.2c0,2.78,0,4.1-.01,4.16-.03.26-.13.46-.3.62-.16.14-.39.22-.69.24v1.21c.13-.01.29-.03.29-.03.46-.06.86-.23,1.19-.51"/>
        <path class="cls-10" d="M198.27,17.14c.34.2.72.31,1.13.31s.79-.1,1.13-.31c.34-.2.62-.48.82-.83.21-.35.31-.73.31-1.13,0-.78,0-1.44,0-2.18l-2.35-.02c-.41,0-.78.1-1.11.29-.33.19-.59.46-.78.79-.19.34-.28.71-.28,1.12s.1.79.3,1.13c.2.35.48.62.82.83M198.63,14.45c.18-.19.41-.29.7-.29h1.14v1.01c0,.3-.1.54-.31.75-.42.41-1.07.42-1.49,0-.21-.21-.31-.45-.31-.75s.09-.54.27-.72"/>
        <path class="cls-10" d="M207.11,10.88h-1.21c0,1.4,0,6.47,0,6.47h1.21s0-6.47,0-6.47"/>
        <path class="cls-10" d="M165.72,10.88h-1.2c0,1.41,0,6.48,0,6.48h1.2s0-6.48,0-6.48"/>
        <path class="cls-10" d="M194.7,10.88h-1.22c0,1.41,0,6.48,0,6.48h1.22v-6.48Z"/>
        <path class="cls-10" d="M134.2,10.88h-1.2c0,1.4,0,6.48,0,6.48h1.2s0-6.48,0-6.48"/>
        <path class="cls-10" d="M187.99,18.64c-.14.14-.21.31-.21.51s.07.37.21.51c.14.14.31.21.51.21s.38-.07.51-.21c.14-.14.21-.31.21-.51s-.07-.38-.21-.51c-.27-.27-.73-.28-1.02,0"/>
        <path class="cls-10" d="M191.85,10.88h-1.16v5.26s-.72,0-.72,0c-.34-.02-.58-.09-.7-.22-.12-.13-.18-.37-.18-.71v-2.2s0-.01,0-.01h-1.22v2.29c0,.25-.04.44-.1.55-.06.12-.18.2-.34.24-.12.03-.46.05-.85.05h-.24c-.28-.04-.47-.11-.58-.22-.12-.13-.18-.37-.18-.71v-2.21s-1.21,0-1.21,0v2.29c0,.26-.04.44-.1.55-.06.12-.18.21-.34.24-.12.03-.47.05-.88.05-.06,0-.2,0-.24,0-.28-.03-.48-.1-.59-.21-.12-.13-.18-.37-.18-.71v-2.2s0-.01,0-.01h-1.22v2.29c0,.25-.04.44-.1.55-.06.12-.18.21-.34.24-.13.03-1.31.03-1.31.03-.45,0-.62-.27-.62-.79,0-.62,0-2.33,0-2.33h-2.35c-.41,0-.78.09-1.11.28-.33.19-.59.46-.78.79-.19.34-.28.71-.28,1.12s.1.79.3,1.13c.2.34.47.62.82.83.34.2.72.31,1.13.31.29,0,.57-.05.83-.16.27-.11.5-.26.73-.46h.01s.32.32.62.42c.23.08.47.08.79.09.6.01,1.03,0,1.03,0,.23,0,.43-.03.59-.07.32-.09.67-.37.67-.37l.05.04c.21.18.42.29.63.34.18.04.41.07.7.07h.74c.28,0,.52-.03.71-.08.19-.05.39-.16.63-.34h.02c.21.19.42.31.63.36.18.04.42.07.7.07h.89c.28,0,.52-.03.71-.08.19-.05.39-.16.63-.34h0s.05.04.06.05c.19.16.39.26.58.31.18.04.42.07.7.07h2.08s.01-6.46.01-6.46h0s-.05-.01-.05-.01ZM177.24,15.19c0,.3-.1.54-.31.75-.41.41-1.06.42-1.49,0-.21-.21-.31-.45-.31-.75s.09-.53.27-.72c.18-.19.41-.28.7-.28h1.14v1.01Z"/>
        <path class="cls-10" d="M185.66,19.88c.21,0,.37-.07.51-.21.14-.14.21-.31.21-.51,0-.21-.07-.38-.21-.51-.27-.27-.73-.28-1.02,0-.14.14-.21.31-.21.51,0,.19.07.36.21.51.14.14.31.21.51.21"/>
        <path class="cls-10" d="M183.3,18.64c-.14.14-.21.31-.21.51s.07.36.21.51c.14.14.31.21.51.21s.36-.07.5-.21c.14-.14.21-.31.21-.51s-.07-.38-.21-.51c-.29-.29-.74-.27-1.02,0"/>
        <path class="cls-10" d="M114.25,12.24c.2,0,.37-.07.51-.21.14-.14.21-.31.21-.51s-.07-.37-.21-.51c-.27-.27-.73-.28-1.02,0-.14.14-.21.31-.21.51s.07.37.21.51c.14.14.31.21.51.21"/>
        <path class="cls-10" d="M122.56,17.36v-2.45c0-.65.01-2.57.01-4.02h-1.21c0,1.39,0,3.42-.01,4.02v2.45h1.21Z"/>
        <path class="cls-10" d="M112.4,12.24c.2,0,.36-.07.5-.21.14-.14.21-.31.21-.51s-.07-.38-.21-.51c-.28-.28-.74-.27-1.01,0-.14.14-.21.31-.21.51s.07.37.21.51c.14.14.31.21.51.21"/>
        <path class="cls-10" d="M120.27,17.35v-1.2h-1.69c-.29,0-.52-.08-.7-.27-.18-.19-.27-.43-.27-.73,0-.2.05-.4.17-.57.28-.41.74-.58,1.18-.44,0,0,.11.04.22.07l.71-.97c-.11-.05-.24-.11-.28-.12-.65-.31-1.46-.27-2.08.09-.34.2-.62.47-.83.82-.2.34-.31.72-.31,1.13,0,.32.06.63.18.93l.03.07h-1.02c-.45,0-.62-.27-.62-.79,0-.62,0-2.36,0-2.36h-2.35c-.41,0-.78.09-1.11.28-.33.19-.59.46-.78.79-.19.34-.28.71-.28,1.12s.1.79.3,1.13c.2.34.47.62.82.83.34.2.72.31,1.13.31.29,0,.57-.05.83-.16.27-.11.5-.26.73-.46h.01s.32.32.62.42c.23.08.41.09.74.1.6.01,1.08,0,1.08,0h3.55ZM113.77,15.19c0,.3-.1.54-.31.75-.41.41-1.06.42-1.49,0-.21-.21-.31-.45-.31-.75s.09-.53.27-.72c.18-.19.41-.28.7-.28h1.14v1.01Z"/>
        <path class="cls-10" d="M127.87,12.26c.2,0,.36-.07.5-.21.14-.14.21-.31.21-.51s-.07-.36-.21-.51c-.29-.29-.74-.28-1.01,0-.14.14-.21.31-.21.51s.07.36.21.51c.14.14.31.21.51.21"/>
        <path class="cls-10" d="M147.09,13h-2.36c-.41,0-.78.09-1.11.28-.33.19-.59.46-.78.79-.19.34-.28.71-.28,1.12s.1.79.3,1.13c.2.35.48.62.82.83.34.2.72.31,1.13.31s.79-.1,1.13-.31c.34-.2.62-.48.83-.83.2-.34.32-.73.32-1.13v-2.19ZM145.86,15.19c0,.3-.1.54-.31.75-.41.41-1.06.42-1.49,0-.21-.21-.31-.45-.31-.75s.09-.53.27-.72c.18-.19.41-.28.7-.28h1.14v1.01Z"/>
        <path class="cls-10" d="M151.29,19.86c.19,0,.36-.07.5-.21.14-.14.21-.31.21-.51s-.07-.37-.21-.51c-.29-.29-.74-.27-1.01,0-.14.14-.21.31-.21.51s.07.36.21.51c.14.14.31.21.51.21"/>
        <path class="cls-10" d="M161.79,10.88v5.27h-1.12c-.28,0-.5-.1-.65-.26-.15-.16-.24-.41-.28-.72,0-.41-.1-.79-.3-1.13-.2-.35-.48-.62-.82-.82-.69-.4-1.58-.4-2.27,0-.34.2-.62.48-.83.82-.2.34-.31.72-.31,1.13v.98c-.24,0-1.23,0-1.26,0h-.1c-.3-.03-.5-.1-.61-.22-.12-.13-.18-.37-.18-.71v-2.22s-1.21,0-1.21,0v2.3c0,.25-.04.44-.1.55-.06.12-.18.2-.34.24-.15.03-.39.05-.7.05h-1.04v-5.27h-1.23v6.48h2.69c.28,0,.52-.03.71-.08.19-.05.39-.16.63-.35,0,0,.44.31.65.36.18.04.41.07.7.07h3.77c.61,0,1.13-.21,1.57-.63h.01s.04.02.04.02c.4.4.91.6,1.52.6h2.27v-6.48s-1.18,0-1.18,0ZM158.47,15.56c-.04.12-.11.22-.2.32-.01,0-.02.02-.03.03-.04.04-.08.07-.12.1-.16.1-.35.15-.57.15h-1.14c0-.23,0-.78,0-.98v-.02c0-.11.02-.22.05-.32,0-.03.01-.06.03-.09.03-.06.06-.12.1-.18.04-.06.09-.11.14-.16.1-.1.22-.18.34-.23.02,0,.04-.02.07-.02.02,0,.05-.01.07-.02.02,0,.03,0,.05-.01.12-.03.28-.03.42,0,.07.01.13.03.2.06.12.05.24.13.34.23.1.1.18.22.23.34.02.05.03.1.05.16.02.08.03.16.03.25,0,.15-.02.28-.07.4"/>
        <path class="cls-10" d="M136.27,18.24v1.22c1.5,0,2.8-.89,3.39-2.17.16-.34.27-.71.32-1.1,0-.02.02-.47.02-.47v-.58c0-.41-.1-.79-.3-1.13-.2-.35-.47-.62-.82-.82-.68-.4-1.58-.4-2.27,0-.35.2-.62.48-.83.82-.2.34-.31.72-.31,1.13s.09.8.28,1.14c.19.33.45.6.78.79.33.19.71.29,1.11.29.2,0,.37,0,.52,0-.46.54-1.14.89-1.91.89M137.65,16.14c-.29,0-.52-.09-.7-.28-.18-.19-.27-.43-.27-.73s.1-.54.31-.75c.21-.21.46-.31.75-.31s.53.1.74.31c.21.21.31.45.31.75v1.01h-1.14Z"/>
        <path class="cls-10" d="M167.79,18.24v1.22c1.5,0,2.8-.89,3.39-2.17.16-.34.27-.71.32-1.1,0-.02.02-.47.02-.47v-.58c0-.41-.1-.79-.3-1.13-.2-.35-.47-.62-.82-.82-.68-.4-1.58-.4-2.27,0-.34.2-.62.48-.83.82-.2.34-.31.72-.31,1.13s.09.8.28,1.14c.19.33.45.6.78.79.33.19.71.29,1.11.29.2,0,.37,0,.52,0-.46.54-1.14.89-1.91.89M169.17,16.14c-.29,0-.52-.09-.7-.28-.18-.19-.27-.43-.27-.73s.1-.54.31-.75c.21-.21.46-.31.75-.31s.53.1.74.31c.21.21.31.45.31.75v1.01h-1.14Z"/>
        <path class="cls-10" d="M208.85,17.16c-.03.26-.13.46-.3.62-.16.14-.39.22-.69.24v1.21c.13-.01.29-.03.29-.03.46-.06.86-.23,1.19-.51.36-.31.59-.73.69-1.23,0-.05.02-.28.02-.28l.02-4.2h-1.2c0,2.78,0,4.1-.01,4.16"/>
        <path class="cls-10" d="M208.9,10.94c-.14.14-.21.31-.21.51s.07.36.21.51c.14.14.31.21.51.21s.36-.07.5-.21c.14-.14.21-.31.21-.51s-.07-.36-.21-.51c-.28-.29-.74-.28-1.01,0"/>
        <path class="cls-10" d="M215.42,14c-.2-.35-.47-.62-.82-.82-.68-.4-1.58-.4-2.27,0-.34.2-.62.47-.83.82-.2.34-.31.72-.31,1.13s.09.8.28,1.14c.19.33.45.6.78.79.33.19.71.29,1.11.29.2,0,.37,0,.52,0-.46.54-1.14.89-1.91.89v1.22c1.5,0,2.8-.89,3.39-2.17.16-.34.27-.71.32-1.1,0-.02.02-.47.02-.47v-.58c0-.41-.1-.79-.3-1.13M214.53,16.14h-1.15s-.04,0-.05,0c-.03,0-.06,0-.09,0,0,0,0,0,0,0,0,0,0,0-.01,0-.21-.03-.39-.12-.54-.27-.18-.19-.27-.43-.27-.73s.1-.54.31-.75c.13-.13.28-.21.44-.26,0,0,.02,0,.03,0,.04-.01.08-.02.12-.03.03,0,.07,0,.11,0,.02,0,.04,0,.06,0,0,0,0,0,0,0,0,0,0,0,0,0,.29,0,.53.1.74.31.21.21.31.45.31.75v1.01Z"/>
        <path class="cls-10" d="M153.66,19.64c.14-.14.21-.31.21-.51s-.07-.38-.21-.51c-.27-.27-.73-.28-1.02,0-.14.14-.21.31-.21.51s.07.36.21.51c.14.14.31.21.51.21.21,0,.37-.07.51-.21"/>
        <path class="cls-10" d="M125.6,12.99h-1.2c0,2.79,0,4.13-.01,4.2-.03.26-.13.46-.3.62-.16.14-.39.22-.69.24v1.21c.13-.01.29-.03.29-.03.46-.06.86-.23,1.19-.51.4-.35.64-.81.71-1.38l.02-4.35Z"/>
        <path class="cls-10" d="M127.79,18.73c.39-.34.64-.81.71-1.37h2.92v-6.47s-1.18,0-1.18,0v5.26h-1.71s-.01,0-.03,0l.02-3.15h-1.2c0,2.79,0,4.13-.01,4.2-.03.26-.13.46-.3.62-.16.14-.39.22-.69.24v1.21c.13-.01.29-.03.29-.03.46-.06.86-.23,1.19-.51"/>
        <path class="cls-10" d="M168.18,15.38c.03.2.12.37.25.52.05.05.09.09.15.12-.05-.04-.1-.08-.15-.12-.13-.14-.22-.31-.25-.52"/>
        <path class="cls-9" d="M235.85,6.82c6.69,0,12.14,5.45,12.14,12.14s-5.45,12.14-12.14,12.14-12.14-5.45-12.14-12.14,5.45-12.14,12.14-12.14M235.85,5.65c-7.33,0-13.3,5.97-13.3,13.3s5.97,13.3,13.3,13.3,13.3-5.97,13.3-13.3-5.97-13.3-13.3-13.3"/>
        <path class="cls-9" d="M242.97,24.12c-.1-.06-.66-.28-1.54-.28-1.24,0-3.15.39-5.53,2.14h-.01s-.05-.03-.05-.03c-2.38-1.75-4.26-2.11-5.5-2.11-.88,0-1.44.22-1.54.28-.03.02-.09.05-.07.1,0,.03.04.05.09.05.02,0,.04,0,.05,0,.28-.07.58-.11.9-.11,1.61,0,3.7,1.22,5.36,2.43-.34.28-.68.58-1.04.91-.05-.04-.07-.05-.11-.09-.15-.12-.29-.21-.43-.26-.09-.03-.17-.04-.25-.02-.16.03-.27.19-.25.38.01.16.12.28.25.29.1,0,.19-.05.25-.14.06.05.12.1.18.15.03.02.05.05.08.08l-.1.09c-.08.07-.16.14-.24.21-.16.13-.33.26-.52.35-.06.03-.14.06-.21.05-.04,0-.08-.01-.12-.03h-.03s0-.01-.01-.01c-.02-.01-.05-.02-.08-.03-.01,0-.02,0-.04,0-.06,0-.11.03-.14.08-.03.06-.04.14-.02.21.02.06.05.1.08.13.13.14.28.22.45.24.03,0,.06,0,.1,0s.07,0,.1,0c.13-.01.27-.06.43-.13.23-.11.46-.25.71-.46l.21-.17c.07.07.14.13.21.2.09.08.19.16.33.21.04.01.08.02.12.02.02,0,.03,0,.05,0,.02,0,.04,0,.05,0,.12-.02.21-.13.23-.26.02-.14-.03-.28-.13-.35-.1-.07-.22-.05-.32.04-.01.01-.02.02-.03.04-.06-.06-.11-.11-.16-.17.35-.32.77-.64,1.17-.96.41.32.85.65,1.2.96-.05.06-.11.12-.16.17-.01-.01-.02-.03-.03-.04-.09-.09-.22-.1-.32-.04-.1.07-.15.21-.13.35.02.13.11.24.23.26.02,0,.04,0,.05,0,.02,0,.03,0,.05,0,.04,0,.08,0,.12-.02.13-.05.24-.13.33-.21.07-.07.14-.13.21-.2l.21.17c.26.2.48.35.71.46.15.07.29.11.43.13.03,0,.07,0,.1,0s.07,0,.1,0c.17-.02.33-.1.45-.24.03-.04.06-.08.08-.13.02-.07,0-.16-.02-.21-.03-.05-.08-.08-.14-.08-.01,0-.03,0-.04,0-.03,0-.05.02-.08.03,0,0,0,0-.01,0h-.03s-.08.03-.12.03c-.07,0-.15-.02-.21-.05-.19-.09-.36-.22-.52-.35-.08-.07-.16-.14-.24-.21l-.1-.09s.05-.05.08-.08c.05-.05.12-.1.18-.15.05.09.14.14.25.14.13,0,.24-.13.25-.29.02-.18-.09-.34-.25-.38-.08-.02-.17,0-.25.02-.14.05-.28.14-.43.26-.05.04-.06.05-.11.09-.34-.32-.7-.64-1.03-.91,1.67-1.21,3.75-2.43,5.36-2.43.31,0,.61.04.9.11,0,0,.03,0,.04,0,.05,0,.08-.02.09-.05.01-.05-.04-.09-.07-.1"/>
        <path class="cls-9" d="M236.58,23.37c-.14.24-.34.9-.34.91.21-.17.84-.3,1.12-.36,1.94-.42,2.06-2.18,2.12-2.53-.05.1-.19.31-1.38.36-.62.03-1.65.1-2.19,1.13.09.19.17.4.22.63.67-1.59,2.31-1.38,2.59-1.44-.28.12-1.47.18-2.14,1.3"/>
        <path class="cls-9" d="M235.85,25.24l.29-.14c-.07-3.13-1.76-3.31-2.58-3.34-1.19-.05-1.32-.26-1.38-.36.06.35.18,2.11,2.12,2.53.28.06.69.12.89.29-.23-2.04-1.91-1.99-2.25-2.14.32.07,2.72-.44,2.61,3.02l.29.14Z"/>
        <path class="cls-9" d="M234.86,16.23c.04.62.43,1.12.97,1.12s.96-.5.97-1.12c.01-.86-.97-2.49-.97-2.49,0,0-1.02,1.59-.97,2.49M236.25,16.96c-.12.1-.27.16-.43.16-.41,0-.75-.39-.75-.86,0-.15.07-.39.17-.65-.03.12-.05.23-.05.32,0,.59.41,1.06.92,1.06.05,0,.09,0,.14-.01"/>
        <path class="cls-9" d="M233.17,19.54c0,1.78,2.53,2.35,2.53,2.35v-.55c0-1.85-2.53-2.35-2.53-2.35v.55Z"/>
        <path class="cls-9" d="M235.96,21.34v.55s2.53-.57,2.53-2.35v-.55s-2.53.5-2.53,2.35"/>
        <path class="cls-9" d="M233.8,17.53c0,1.45,1.92,1.91,1.92,1.91v-.45c0-1.5-1.92-1.91-1.92-1.91v.45Z"/>
        <path class="cls-9" d="M235.92,18.99v.45s1.92-.46,1.92-1.91v-.45s-1.92.41-1.92,1.91"/>
        <path class="cls-9" d="M229.11,14.44c1.67-1.68,2.74-1.98,4.08-2.19-1.37.87-2.64,2.89-2.25,4.32.72-1.51,1.98-2.99,3.14-3.53-.66.92-.68,2.07-.04,3.06.15-1.28,1.04-2.5,1.78-3.32.74.82,1.64,2.05,1.78,3.32.63-.98.61-2.13-.05-3.06,1.16.54,2.42,2.01,3.14,3.53.4-1.42-.88-3.45-2.25-4.32,1.33.21,2.41.51,4.08,2.19-.55-2.25-2.49-3.03-4.04-3.31,1.71-.15,2.04.03,3.55.65-1.64-1.61-2.78-1.9-4.42-1.75.28-.25.55-.38.96-.49-.69-.27-1.76-.13-2.18.27,0,0-.08-.74-.58-1.04h0s0,0,0,0c0,0,0,0,0,0h0c-.49.3-.58,1.04-.58,1.04-.42-.4-1.49-.54-2.18-.27.41.11.68.24.96.49-1.64-.16-2.79.13-4.42,1.75,1.51-.63,1.85-.8,3.55-.65-1.55.28-3.49,1.06-4.04,3.31"/>
      </g>
      <rect class="cls-4" x="98.36" y="6.23" width=".36" height="24.74"/>
      <g>
        <rect class="cls-6" x="21.28" y="7.01" width=".15" height="21.72"/>
        <g>
          <g>
            <g>
              <path class="cls-2" d="M74.39,20.12c-.06,0-.14,0-.23-.01.03-.01.06-.02.09-.04.05.02.09.03.13.05h0Z"/>
              <path class="cls-2" d="M86.8,20.72l-1.31,3.84-5.44,2.17-7.51,1.33-1.92,2.71-1.21-.82-5.58-.13c1.77-3.67,4.65-6.71,8.19-8.69.51-.08,1.02-.12,1.54-.13.86-.01,1.55.03,2.08.1-.63.36-1.95,1.32-1.9,3.07,0,0,1.58-.14,2.15-1.83-.04.04-.64.74-1.47,1.17,0,0,.14-.43.48-.93.35-.49.91-1.05,1.76-1.28.61.58,0,2.6-2.27,5.21.1-.07,3.19-2.21,3.32-4.71,1.88,1.18,4.96,1.63,4.96,1.63.33,1.34-2.27,1.07-2.27,1.07-1.81-.17-2.35,1.55-2.35,1.55.73-.67,1.54-1.04,2.34-1,3.74.2,3.09-2.16,3.09-2.16-3.21-.34-5.01-1.82-5.01-1.82-.93-.67-1.85-1.17-2.75-1.54,1.86-.58,3.83-.9,5.88-.9,1.42,0,2.8.15,4.13.44l1.06,1.63h0Z"/>
              <path class="cls-2" d="M76.68,21.3h0s-.03-.01-.03-.01c.01,0,.03,0,.04.01Z"/>
            </g>
            <g>
              <path class="cls-3" d="M63.22,5.38c-.8.07-1.6.18-2.38.33l-1.29-2.28c.17-.09.31-.2.45-.33l3.22,2.27Z"/>
              <path class="cls-3" d="M65.37,5.29s-.06,0-.09,0c-.51,0-1.02.02-1.53.05l-3.3-2.82c.09-.15.16-.32.21-.49-.24.39-.61.71-1.07.9-1.16.48-2.49-.08-2.97-1.24-.22-.55-.22-1.12-.03-1.64l2.95.66h0s.05.01.05.01l.29.23s0,.01-.01.02c-.31.58-.99.88-1.65.69-.5-.14-.86-.53-.99-1-.07.73.38,1.42,1.11,1.62.81.23,1.65-.24,1.89-1.04,0,0,0-.01,0-.02,0,0,0,0,0,0l5.13,4.06h0Z"/>
              <path class="cls-3" d="M60.36,5.81c-3.7.79-7.08,2.46-9.91,4.77l-1.36-2.77v-2.72l2.87-.07,2.56-1.6-1.27-2.24,3.1-1.18h.01c-.2.31-.34.66-.39,1.02l-1.82.32,1.84.46c.03.16.07.31.14.46.01.03.02.05.03.07l-5.75,7.11,6.41-6.24c.15.13.32.23.49.31l-.47,3.18,1.29-2.95c.22.02.44.01.66-.03l1.58,2.1h0Z"/>
            </g>
            <path class="cls-8" d="M64,10.1c2.21-1.51,4.72-2.61,7.42-3.19l-.54-.14c-.54-.14-1.09-.25-1.65-.35l-2.11-.27c-.61-.05-1.22-.07-1.84-.07-.22,0-.35,0-.57,0l2.47,2.15-2.96-2.13c-1.01.05-2,.16-2.98.34l1.67,2.83-2.03-2.76c-3.78.74-7.22,2.43-10.08,4.8l2.08,4.24,2.71,2.28.27,3.05c1.26-3.8,3.58-7.13,6.6-9.62.09-.23.22-.45.38-.66l1.81-2.95c.11.35.1,1.15-.23,1.75l-.43.71h0ZM56.69,13.18c.1-.25.16-.51.15-.76.19.33.22.75.05,1.13-.28.63-1.01.91-1.62.64.19-.79,1.16-.35,1.42-1.01h0ZM58.36,13.26c-.07,1.27-1.09,2.3-2.34,2.34-.65.02-1.27-.21-1.75-.66-.5-.47-.78-1.13-.78-1.82,0-.59.18-1.19.56-1.64l.46-.61-.44,1.05c-.1.41-.11.7-.11.97,0,1.04.87,2,1.85,2s1.82-.89,1.82-1.93c0-.45-.26-.95-.53-1.29l-.77-1.17c-.33-.54-.65-1.25-.58-1.58l2.04,2.6c.41.49.61,1.1.58,1.74ZM60.94,11.04c-.26.27-.61.42-.98.42h-.01c-.72,0-1.34-.57-1.41-1.3-.03-.37.07-.73.29-1.02l1.14-1.59.04.14c.07.25-.2.78-.29.93l-.4.67c-.13.17-.26.45-.25.69.01.25.12.5.31.69.19.18.42.28.67.27.5-.02.93-.53.91-1.07,0-.15-.02-.29-.08-.51l-.41-.95.53.65c.21.23.34.57.36.93.02.4-.13.79-.41,1.07h0Z"/>
            <path class="cls-1" d="M70.35,10.67s4.3.82,6.65,5.38c.77.18,1.53.41,2.28.67l-3.14-3.98-.07-1.6-3.04-3.73s-.02,0-.03-.01c-3.69.52-7.06,2.04-9.83,4.27-.04.15-.06.31-.05.45.07,1.12,1.07,2.02,2.19,1.95,1.11-.07,2.03-1.17,1.96-2.28-.01-.23-.03-.46-.11-.76-.05-.19-.08-.39-.09-.6v-.15c.45.46.7,1.1.73,1.73.05.74-.23,1.47-.76,2.01-.51.51-1.2.81-1.93.83-1.41.04-2.64-1-2.8-2.36,0-.03,0-.05,0-.08-3.06,2.75-5.28,6.42-6.22,10.57,1.18-1.4,2.55-2.65,4.05-3.71.69-2.04,2.97-3.14,2.97-3.14.22.41.39.8.52,1.17,1.34-.6,2.75-1.06,4.21-1.37-.07-.06-.13-.11-.2-.17,2.88-2.83,4.8-1.12,4.8-1.12-2.01-.02-3.55.77-3.81.93,1.02-.17,3.01-.39,4.91-.05h0c.83.06,1.66.16,2.47.31-.14-.33-.37-.81-.76-1.38-.57-.81-1.35-1.49-1.35-1.49,0,0-1.71,1.57-4.82-2.38,0,0,1.69-1.05,3.64-.49,2.16.63,1.8,1.97,1.8,1.97,0,0-1.91-1.83-4.15-1.41h0ZM66.58,12.41c-.3.78-1.16,1.19-1.92.9.17-.98,1.38-.51,1.66-1.33.1-.31.15-.63.13-.93.25.39.32.9.14,1.37h0Z"/>
            <path class="cls-7" d="M67.01,19.27c1.82-.23,3.87-.21,6.14.44-.34.16-.68.32-1.01.49-2.63.31-6.77,1.49-9.64,5.72.1-.09,3.2-2.85,7.18-4.19-1.44,1.03-2.73,2.24-3.86,3.6-1.13,1.36-2.08,2.87-2.83,4.48h0c-.09.22-.19.43-.28.64l-.54,1.22-5.71-7.91c1.02-1.26,2.19-2.38,3.48-3.36-.01.37.03.75.15,1.16.07-.15.15-.31.24-.47,0,0,0-.01,0-.01.13-.25.28-.52.44-.8,0,0,0,0,0-.01.11-.18.22-.36.33-.54,0,0,0-.01.01-.02.35-.54.75-1.06,1.16-1.44,0,0-.04.08-.12.22-.07.14-.18.35-.3.61-.3.62-.7,1.54-1.02,2.56,0,0,0,0,0,0-.03.08-.05.17-.08.25h0c-.08.26-.14.53-.2.79,0,0,0,0,0,0-.25,1.04-.4,2.17-.34,3.28,0,0,.52-1.9,1.04-3.46,1.14-.42,3.23-1.59,2.57-4.47,1.52-.69,3.14-1.2,4.84-1.49,2.2,1.36,3.7.26,4.26-.29,2.52.09,4.96.64,7.27,1.64-1.98.13-3.87.55-5.66,1.2-4.21-1.28-7.55.14-7.55.14h0Z"/>
          </g>
          <g>
            <path class="cls-5" d="M25.7,7.61l-.43-.42s-.13-.05-.18,0l-.42.42s-.05.13,0,.18l.42.43s.13.05.18,0l.43-.43s.05-.13,0-.18h0Z"/>
            <path class="cls-5" d="M26.96,7.61l-.42-.42s-.13-.05-.18,0l-.42.42s-.05.13,0,.18l.42.43s.13.05.18,0l.42-.43s.05-.13,0-.18h0Z"/>
            <path class="cls-5" d="M24.79,11.99c.27.24.64.36,1.13.36.3,0,.56-.06.79-.17.23-.11.41-.27.54-.48.13-.21.19-.46.19-.74,0-.22-.05-.43-.15-.63s-.24-.39-.41-.58c-.17-.19-.37-.37-.58-.55-.21-.18-.44-.37-.68-.55l-.54.7.15.13c-.25.27-.45.53-.61.77-.15.25-.23.52-.23.83,0,.36.13.67.4.91h0ZM25.11,10.5s.01-.04.02-.05c.13-.22.54-.5.5-.63,0,0,.46.4.57.51.11.11.21.21.28.32.08.11.12.21.12.3,0,.16-.06.28-.17.36-.11.08-.29.12-.52.12-.34,0-.82-.14-.87-.52-.02-.14.01-.28.07-.4h0Z"/>
            <path class="cls-5" d="M29.18,13.91c.34-.24.59-.55.77-.92.18-.37.26-.8.26-1.29,0-.27-.02-.55-.07-.84-.05-.29-.12-.57-.22-.84l-.87.29c.08.24.16.5.22.77.06.27.09.51.09.73,0,.33-.07.6-.2.83-.13.23-.32.42-.58.57s-.57.26-.95.34l.32.86c.47-.1.88-.26,1.22-.5h0Z"/>
            <path class="cls-5" d="M31.89,12.36c.45,0,.84-.05,1.15-.16s.56-.28.73-.51c.17-.23.25-.54.25-.9,0-.26-.05-.49-.16-.72-.11-.22-.25-.43-.44-.62s-.41-.37-.65-.54c-.25-.17-.52-.32-.8-.47l-.4.84c.32.16.61.33.85.51s.43.35.57.53c.14.18.2.34.2.5s-.06.28-.18.37c-.12.09-.28.16-.49.2s-.43.06-.68.06c-.13,0-.28-.01-.45-.03s-.34-.05-.5-.08v.93c.15.04.31.06.48.07s.34.02.53.02h0Z"/>
            <polygon class="cls-5" points="39.32 13.49 39.94 14.11 40.57 13.49 39.94 12.86 39.32 13.49"/>
            <path class="cls-5" d="M45.58,10.22c-.12-.24-.29-.43-.52-.57-.22-.14-.48-.22-.79-.22-.23,0-.43.05-.59.14-.16.1-.31.22-.43.37-.12.15-.23.31-.33.48s-.19.33-.28.48c-.09.15-.19.28-.29.37-.1.1-.23.14-.37.14h-.08c-.15,0-.27-.03-.36-.08-.09-.06-.17-.14-.22-.24-.05-.1-.08-.23-.09-.36l-.07-1-.83.1c.01.12.02.25.03.38,0,.13,0,.26,0,.4,0,.27-.06.47-.17.61-.12.14-.32.21-.61.21h-3.18c-.25,0-.42-.06-.52-.18-.1-.12-.14-.33-.14-.63v-3.54h-.89v3.6c0,.57.13.99.38,1.27.24.27.62.41,1.12.41h0s3.23,0,3.23,0c.24,0,.47-.04.68-.13.22-.09.39-.22.54-.39.08.11.16.2.27.28s.22.14.36.18c.12.04.26.06.41.06h0s.16,0,.16,0c.19,0,.35-.02.47-.07s.24-.11.33-.18c.1-.08.19-.17.29-.27.15.12.3.23.44.32.15.09.3.16.45.21.15.05.32.08.49.08.28,0,.52-.06.7-.18s.33-.29.43-.51c.1-.22.15-.47.15-.76s-.06-.54-.18-.78h0ZM44.83,11.39c-.12.23-.38.44-.64.44-.2,0-.36-.11-.52-.22-.04-.03-.22-.18-.38-.18,0,0,.4-.61.47-.72.15-.25.41-.46.72-.37.4.13.52.62.37.98,0,.02-.02.04-.03.06h0Z"/>
            <path class="cls-5" d="M26.35,15.52l.42.43s.13.05.18,0l.42-.43s.05-.13,0-.18l-.42-.42s-.13-.05-.18,0l-.42.42s-.05.13,0,.18h0Z"/>
            <path class="cls-5" d="M25.09,15.52l.42.43s.13.05.18,0l.43-.43s.05-.13,0-.18l-.43-.42s-.13-.05-.18,0l-.42.42s-.05.13,0,.18h0Z"/>
            <path class="cls-5" d="M24.71,19.54c.26.22.59.32.99.32.19,0,.36-.03.52-.1.16-.06.31-.16.47-.28.06.2.14.37.26.51s.26.25.44.32c.17.07.37.11.6.11h0s.57,0,.57,0c.24,0,.47-.04.68-.13.21-.09.39-.22.54-.39.08.11.16.2.27.28.1.08.22.14.36.18.12.04.26.06.41.06h0s.38,0,.38,0c.27,0,.54-.01.81-.04.27-.03.55-.06.83-.11s.57-.11.87-.19c.3-.07.6-.16.92-.25v-.94l-1.74.41s-.03,0-.05.01c-.02,0-.03,0-.04,0-.05-.02-.11-.07-.19-.15-.08-.08-.15-.17-.21-.29s-.09-.24-.09-.38.04-.26.12-.36c.08-.1.18-.18.31-.23.12-.06.25-.08.38-.08.18,0,.35.03.51.1.16.07.33.15.51.26l.34-.77c-.24-.16-.47-.29-.7-.38-.23-.09-.46-.14-.72-.14-.29,0-.56.07-.8.22-.24.14-.44.33-.58.57s-.22.5-.22.79c0,.11.01.23.04.35s.06.24.1.35c.04.11.1.21.15.3h-.87c-.15,0-.27-.03-.36-.08-.09-.06-.17-.14-.22-.24-.05-.1-.08-.23-.09-.36l-.07-1-.83.1c.01.12.02.25.03.38,0,.13,0,.26,0,.4,0,.27-.06.47-.17.61-.12.14-.32.21-.61.21h-.53c-.19,0-.34-.06-.45-.18-.1-.12-.17-.27-.19-.44l-.35-2.38-.8.16.03.18c-.28.09-.54.18-.77.3s-.44.24-.62.39c-.18.15-.31.31-.41.49s-.15.38-.15.61c0,.4.13.71.4.93h0ZM25.23,18.3c.02-.07.05-.13.08-.19.22-.44.64-.64,1.09-.8-.06.02.01.36.02.41.03.21.09.43.07.65-.04.39-.37.58-.73.61-.13.01-.26,0-.38-.07-.23-.14-.23-.38-.15-.61h0Z"/>
            <path class="cls-5" d="M28.83,21.63l.42.43s.13.05.18,0l.42-.43s.05-.13,0-.18l-.42-.42s-.13-.05-.18,0l-.42.42s-.05.13,0,.18Z"/>
            <path class="cls-5" d="M27.57,21.63l.42.43s.13.05.18,0l.43-.43s.05-.13,0-.18l-.43-.42s-.13-.05-.18,0l-.42.42s-.05.13,0,.18h0Z"/>
            <path class="cls-5" d="M36.86,20.95c-.18.15-.41.29-.68.4s-.58.2-.92.26l.32.86c.5-.1.92-.24,1.26-.43.34-.19.61-.42.8-.69s.34-.58.42-.93h1.46c.24,0,.47-.04.68-.13.21-.09.39-.22.54-.39.08.11.16.2.27.28.1.08.22.14.36.18.12.04.26.06.41.06h0s.29,0,.29,0c.54,0,.94-.14,1.18-.43.25-.28.37-.7.37-1.26v-3.6h-.89v3.54c0,.25-.04.45-.12.59s-.26.21-.54.21h-.23c-.15,0-.27-.03-.36-.08-.09-.06-.17-.14-.22-.24-.05-.1-.08-.23-.09-.36l-.07-1-.83.1c.01.12.02.25.03.38,0,.13,0,.26,0,.4,0,.27-.06.47-.17.61-.12.14-.32.21-.61.21h-1.39c-.02-.29-.06-.57-.13-.82s-.17-.48-.3-.67-.28-.34-.46-.45c-.18-.11-.38-.16-.62-.16s-.43.05-.6.16c-.17.11-.31.25-.43.43-.11.18-.2.37-.25.57s-.08.4-.08.59c0,.44.13.77.38.97s.63.31,1.12.31h.44c-.06.2-.18.37-.36.53h0ZM36.76,19.48c-.21,0-.37-.02-.49-.07-.12-.05-.17-.15-.17-.3,0-.1.02-.21.05-.33s.09-.24.17-.33c.08-.09.18-.14.32-.14.11,0,.21.03.29.09.08.06.15.15.2.26.05.11.1.24.13.38.03.14.05.31.11.45h-.6Z"/>
            <path class="cls-5" d="M41.2,16.5l-.46-.46s-.1-.04-.14,0l-.46.46s-.04.1,0,.14l.46.46s.1.04.14,0l.46-.46s.04-.1,0-.14h0Z"/>
            <path class="cls-5" d="M39.47,17.11l.46-.46s.04-.1,0-.14l-.46-.46s-.1-.04-.14,0l-.46.46s-.04.1,0,.14l.46.46s.1.04.14,0h0Z"/>
            <rect class="cls-5" x="44.68" y="15.13" width=".88" height="5.28"/>
            <path class="cls-5" d="M26.3,23.58l.42.43s.13.05.18,0l.42-.43s.05-.13,0-.18l-.42-.42s-.13-.05-.18,0l-.42.42s-.05.13,0,.18h0Z"/>
            <path class="cls-5" d="M25.04,23.58l.42.43s.13.05.18,0l.43-.43s.05-.13,0-.18l-.43-.42s-.13-.05-.18,0l-.42.42s-.05.13,0,.18h0Z"/>
            <path class="cls-5" d="M30.91,29.69l.42.43s.13.05.18,0l.42-.43s.05-.13,0-.18l-.42-.42s-.13-.05-.18,0l-.42.42s-.05.13,0,.18Z"/>
            <path class="cls-5" d="M29.65,29.69l.42.43s.13.05.18,0l.43-.43s.05-.13,0-.18l-.43-.42s-.13-.05-.18,0l-.42.42s-.05.13,0,.18h0Z"/>
            <path class="cls-5" d="M34.32,23.77c-.2,0-.37.07-.52.21-.15.14-.23.32-.23.54,0,.14.03.25.08.33.05.08.12.16.2.23l-.2.08c-.12.05-.19.17-.17.29l.03.19,1.1-.44c.22-.09.35-.32.32-.55h0s-.53.18-.53.18c0,0-.01,0-.02,0,0,0-.01,0-.02,0-.14.02-.24,0-.31-.07-.07-.07-.1-.13-.11-.2,0-.12.04-.21.13-.27s.18-.09.29-.09c.07,0,.14,0,.21.02s.14.04.22.08v-.22c0-.13-.09-.25-.22-.29h0c-.07-.02-.16-.03-.26-.03h0Z"/>
            <path class="cls-5" d="M35.21,29.69l.42.43s.13.05.18,0l.43-.43s.05-.13,0-.18l-.43-.42s-.13-.05-.18,0l-.42.42s-.05.13,0,.18h0Z"/>
            <path class="cls-5" d="M36.48,29.69l.42.43s.13.05.18,0l.42-.43s.05-.13,0-.18l-.42-.42s-.13-.05-.18,0l-.42.42s-.05.13,0,.18Z"/>
            <path class="cls-5" d="M39.33,29.69l.45.45s.13.05.18,0l.45-.45s.05-.13,0-.18l-.45-.45s-.13-.05-.18,0l-.45.45s-.05.13,0,.18h0Z"/>
            <path class="cls-5" d="M42.73,26.73c0,.25-.04.45-.12.59s-.26.21-.54.21h-.23c-.15,0-.27-.03-.36-.08-.09-.06-.17-.14-.22-.24-.05-.1-.08-.23-.09-.36l-.07-1-.83.1c.01.12.02.25.03.38,0,.13,0,.26,0,.4,0,.27-.06.47-.17.61-.12.14-.32.21-.61.21h-1.03c-.15,0-.27-.03-.36-.08-.09-.06-.17-.14-.22-.24-.05-.1-.08-.23-.09-.36l-.07-1-.83.1c.01.12.02.25.03.38,0,.13,0,.26,0,.4,0,.27-.06.47-.17.61-.12.14-.32.21-.61.21h-.49c-.15,0-.27-.03-.36-.08-.09-.06-.17-.14-.22-.24-.05-.1-.08-.23-.09-.36l-.07-1-.83.1c.01.12.02.25.03.38,0,.13,0,.26,0,.4,0,.27-.06.47-.17.61-.12.14-.32.21-.61.21h-.46c-.15,0-.27-.03-.36-.08-.09-.06-.17-.14-.22-.24-.05-.1-.08-.23-.09-.36l-.07-1-.83.1c.01.12.02.25.03.38,0,.13,0,.26,0,.4,0,.27-.06.47-.17.61-.12.14-.32.21-.61.21h-2.66c-.19,0-.34-.06-.45-.18-.1-.12-.17-.27-.19-.44l-.35-2.38-.8.16.03.18c-.28.09-.54.18-.77.3s-.44.24-.62.39c-.18.15-.31.31-.41.49s-.15.38-.15.61c0,.4.13.71.4.93.26.22.59.32.99.32.19,0,.36-.03.52-.1.16-.06.31-.16.47-.28.06.2.14.37.26.51s.26.25.44.32c.17.07.38.11.61.11h.02s2.67,0,2.67,0c.24,0,.47-.04.68-.13.21-.09.39-.22.54-.39.08.11.16.2.27.28.1.08.22.14.36.18.12.04.25.05.39.06h0s.54,0,.54,0c.24,0,.47-.04.68-.13.21-.09.39-.22.54-.39.08.11.16.2.27.28.1.08.22.14.36.18.12.04.25.05.39.06h0s.57,0,.57,0c.24,0,.47-.04.68-.13.21-.09.39-.22.54-.39.08.11.16.2.27.28.1.08.22.14.36.18.12.04.25.05.4.06h0s1.11,0,1.11,0c.24,0,.47-.04.68-.13.22-.09.39-.22.54-.39.08.11.16.2.27.28.1.08.22.14.36.18.12.04.26.06.41.06h0s.29,0,.29,0c.54,0,.94-.14,1.18-.43.25-.28.37-.7.37-1.26v-3.6h-.89v3.54h0ZM26.33,26.78c-.08.09-.18.15-.31.19-.12.04-.25.06-.38.06-.16,0-.29-.04-.38-.11-.3-.22-.17-.73.03-.96.13-.15.31-.26.49-.35s.35-.14.53-.23c-.08.18.05.56.1.84,0,.05.01.09.02.13,0,.04,0,.08,0,.12,0,.12-.04.23-.12.31h0Z"/>
            <rect class="cls-5" x="44.68" y="23.19" width=".88" height="5.28"/>
          </g>
        </g>
        <g>
          <path class="cls-7" d="M3.42,11.8c-.09,0-.16,0-.21,0h-.17c-.34,0-.64.03-.9.08-.27.05-.49.13-.68.23-.19.1-.33.23-.43.39-.1.15-.15.34-.15.54,0,.24.06.43.19.58.12.15.29.26.49.33.2.07.42.1.65.1.25,0,.49-.03.72-.08.23-.05.45-.12.66-.2l.21.74c-.24.1-.49.18-.76.24-.27.06-.53.08-.8.08s-.53-.03-.78-.1c-.25-.07-.47-.17-.67-.31-.19-.14-.35-.32-.46-.55-.11-.22-.17-.49-.17-.81,0-.24.04-.47.11-.67.07-.21.18-.4.33-.57.15-.17.34-.33.58-.46-.08-.08-.14-.17-.19-.27-.05-.1-.09-.2-.12-.31-.03-.11-.04-.22-.04-.34,0-.24.06-.46.19-.67.13-.2.3-.37.51-.49.21-.12.44-.19.68-.19.2,0,.4.04.6.12.2.08.41.19.61.33l-.29.66c-.15-.09-.3-.16-.44-.22-.14-.06-.29-.08-.44-.08-.18,0-.34.05-.48.16-.14.1-.21.25-.21.43,0,.09.02.18.06.26.04.08.09.15.14.21.06.06.11.11.15.15.2-.02.39-.04.55-.06.16-.01.32-.02.49-.02.09,0,.17,0,.24,0,.07,0,.16,0,.26.02l-.05.76Z"/>
          <path class="cls-7" d="M6.06,10.13c.15.09.28.22.39.38.11.16.19.35.25.57.06.22.1.45.11.71h.29v.8h-.35c-.07.3-.19.56-.36.79-.17.23-.4.43-.69.59-.29.16-.65.28-1.08.37l-.27-.73c.29-.06.55-.13.78-.23.23-.09.43-.21.58-.34.15-.13.26-.28.31-.45h-.38c-.42,0-.74-.09-.96-.26-.22-.18-.33-.45-.33-.83,0-.16.02-.33.07-.51.05-.18.12-.34.22-.49.1-.15.22-.27.37-.37.15-.09.32-.14.52-.14s.38.05.53.14ZM6.11,11.79c-.01-.13-.03-.26-.06-.38-.03-.12-.06-.23-.11-.32-.05-.09-.1-.17-.17-.22-.07-.05-.15-.08-.25-.08-.11,0-.2.04-.27.12-.07.08-.11.17-.14.28-.03.11-.04.2-.04.28,0,.13.05.21.15.26.1.04.24.06.42.06h.47Z"/>
          <path class="cls-7" d="M8.43,11.79v.8h-1.45v-.8h1.45Z"/>
          <path class="cls-7" d="M8.46,11.79v.8h-.15v-.8h.15ZM10.03,10.34l.06.86c0,.12.03.22.07.31.04.09.1.16.19.2.08.05.18.07.31.07h.06v.8h-.07c-.15,0-.28-.02-.4-.05-.12-.04-.22-.09-.3-.15-.09-.07-.16-.15-.23-.24-.12.14-.28.25-.46.33-.18.08-.38.11-.58.11h-.31v-.8h.31c.25,0,.43-.06.53-.18.1-.12.15-.29.15-.52,0-.12,0-.23,0-.34,0-.11-.01-.22-.02-.32l.71-.08ZM9.51,13.55l-.54.54-.54-.54.54-.54.54.54Z"/>
          <path class="cls-7" d="M11.99,11.79v.8h-1.39v-.8h1.39Z"/>
          <path class="cls-7" d="M13.52,12.47c-.14-.08-.26-.19-.35-.32-.11.14-.25.25-.42.32-.17.08-.39.12-.66.12h-.23v-.8h.23c.25,0,.44-.05.56-.15.12-.1.18-.27.18-.51,0-.03,0-.08,0-.15,0-.06,0-.13-.01-.21,0-.08-.01-.16-.02-.25l.71-.09.06.78c0,.11.03.2.07.29.04.09.1.15.17.2.07.05.16.08.27.08.2,0,.34-.06.42-.17s.13-.28.13-.48c0-.03,0-.08,0-.15,0-.06,0-.13-.01-.21,0-.08-.01-.16-.02-.25l.71-.09.06.78c0,.1.03.19.06.28.03.09.08.16.15.21.07.05.15.08.25.08.09,0,.17-.03.23-.08.06-.06.1-.13.13-.22.03-.09.04-.2.04-.31,0-.14-.02-.3-.05-.48-.03-.18-.07-.35-.11-.52l.73-.19c.05.19.09.37.12.56.03.19.04.37.04.55,0,.27-.03.52-.1.75-.07.23-.18.41-.35.54s-.38.2-.66.21c-.2,0-.36-.04-.5-.12-.14-.08-.25-.19-.33-.32-.11.14-.25.25-.41.32-.16.08-.33.12-.51.12-.23,0-.42-.04-.56-.12Z"/>
          <path class="cls-7" d="M17.54,7.67c-.04-.07-.06-.17-.06-.29,0-.19.07-.34.2-.47.13-.12.28-.18.45-.18.08,0,.16,0,.22.03.06.02.12.05.19.08v.36c-.06-.03-.13-.06-.18-.07-.06-.01-.12-.02-.18-.02-.09,0-.17.03-.25.08-.08.05-.11.13-.11.23,0,.06.03.12.09.17.06.06.15.08.26.06,0,0,0,0,.01,0,0,0,0,0,.02,0l.45-.16.05.35-1.27.5-.05-.35.34-.13c-.07-.06-.13-.12-.17-.2ZM18.44,12.59h-.76v-4.07h.76v4.07Z"/>
          <path class="cls-7" d="M2.76,20.43c-.15-.06-.28-.15-.38-.27-.1-.12-.17-.27-.22-.44-.13.11-.27.19-.4.24-.13.05-.28.08-.44.08-.34,0-.62-.09-.85-.28-.23-.18-.34-.45-.34-.8,0-.19.04-.37.12-.52.08-.15.2-.29.35-.42.15-.12.33-.24.53-.33.2-.1.42-.18.66-.25l-.02-.15.68-.14.3,2.04c.02.14.07.27.16.37.09.1.22.16.38.16h.1v.8h-.11c-.2,0-.38-.03-.53-.09ZM1.76,16.25l-.52.52-.51-.52.51-.51.52.51ZM2,18.7s0-.07-.02-.11l-.06-.41c-.15.05-.29.11-.42.17-.13.06-.24.12-.33.18-.09.06-.17.13-.22.2-.05.07-.08.14-.08.22,0,.11.04.2.12.26.08.06.19.09.33.09.11,0,.22-.02.32-.05.11-.04.19-.09.26-.16.07-.07.1-.16.1-.27,0-.03,0-.07,0-.1ZM2.84,16.25l-.51.52-.51-.52.51-.51.51.51Z"/>
          <path class="cls-7" d="M4.68,19.72v.8h-1.39v-.8h1.39Z"/>
          <path class="cls-7" d="M4.78,19.72v.8h-.24v-.8h.24ZM6.35,18.27l.06.86c0,.12.03.22.07.31.04.09.1.16.19.2.08.05.18.07.31.07h.06v.8h-.07c-.15,0-.28-.02-.4-.05-.12-.04-.22-.09-.3-.15-.09-.07-.16-.15-.23-.24-.12.14-.28.25-.46.33-.18.08-.38.11-.58.11h-.31v-.8h.31c.25,0,.43-.06.53-.18.1-.12.15-.29.15-.52,0-.12,0-.23,0-.34,0-.11-.01-.22-.02-.32l.71-.08ZM5.22,17.42c-.04-.07-.06-.17-.06-.29,0-.19.07-.34.2-.47.13-.12.28-.18.45-.18.08,0,.16,0,.22.03.06.02.12.05.19.08v.36c-.06-.03-.13-.06-.18-.07-.06-.01-.12-.02-.18-.02-.09,0-.17.03-.25.08-.08.05-.11.13-.11.23,0,.06.03.12.09.17.06.06.15.08.26.06,0,0,0,0,.01,0,0,0,0,0,.02,0l.45-.16.05.35-1.27.5-.05-.35.34-.13c-.07-.06-.13-.12-.17-.2Z"/>
          <path class="cls-7" d="M8.37,19.72v.8h-1.45v-.8h1.45Z"/>
          <path class="cls-7" d="M8.84,21.48l-.52.52-.51-.52.51-.51.52.51ZM8.49,19.72v.8h-.26v-.8h.26ZM10.07,18.27l.06.86c0,.12.03.22.07.31.04.09.1.16.19.2.08.05.18.07.31.07h.06v.8h-.07c-.15,0-.28-.02-.4-.05-.12-.04-.22-.09-.3-.15s-.16-.15-.23-.24c-.12.14-.28.25-.46.33-.18.08-.38.11-.58.11h-.31v-.8h.31c.25,0,.43-.06.53-.18.1-.12.15-.29.15-.52,0-.12,0-.23,0-.34,0-.11-.01-.22-.02-.32l.71-.08ZM9.92,21.48l-.51.52-.51-.52.51-.51.51.51Z"/>
          <path class="cls-7" d="M11.92,19.72v.8h-1.28v-.8h1.28Z"/>
          <path class="cls-7" d="M11.95,19.72v.8h-.15v-.8h.15ZM13.52,18.27l.06.86c0,.12.03.22.07.31.04.09.1.16.19.2.08.05.18.07.31.07h.06v.8h-.07c-.15,0-.28-.02-.4-.05-.12-.04-.22-.09-.3-.15-.09-.07-.16-.15-.23-.24-.12.14-.28.25-.46.33-.18.08-.38.11-.58.11h-.31v-.8h.31c.25,0,.43-.06.53-.18.1-.12.15-.29.15-.52,0-.12,0-.23,0-.34,0-.11-.01-.22-.02-.32l.71-.08ZM13,21.48l-.54.54-.54-.54.54-.54.54.54Z"/>
          <path class="cls-7" d="M15.32,19.72v.8h-1.23v-.8h1.23Z"/>
          <path class="cls-7" d="M15.44,19.72c.24,0,.39-.06.46-.18.07-.12.11-.29.11-.51v-3.04h.76v3.09c0,.48-.11.83-.32,1.08-.21.24-.55.36-1.01.36h-.25v-.8h.25Z"/>
          <path class="cls-7" d="M18.44,20.52h-.76v-4.52h.76v4.52Z"/>
          <path class="cls-7" d="M3.53,28.22v.72H.1v-.62l1.65-1.78c.17-.19.31-.36.41-.51.1-.14.17-.27.21-.39.04-.12.06-.23.06-.34,0-.23-.06-.42-.18-.56-.12-.14-.3-.22-.53-.22-.17,0-.31.04-.43.12-.12.08-.21.19-.27.32-.06.14-.09.29-.09.47h-.92c0-.3.07-.57.21-.82s.34-.44.6-.59c.26-.15.57-.22.93-.22.52,0,.92.13,1.2.38.28.25.42.6.42,1.04,0,.22-.05.43-.14.64-.09.21-.22.41-.38.62-.16.21-.35.42-.57.64l-.99,1.1h2.26Z"/>
          <path class="cls-7" d="M8.49,25.97v.85c0,.52-.07.94-.21,1.26-.14.32-.33.56-.59.7-.25.15-.55.22-.89.22s-.63-.07-.89-.22-.45-.38-.59-.7c-.14-.32-.21-.74-.21-1.26v-.85c0-.52.07-.94.21-1.25.14-.32.34-.55.59-.7.25-.15.55-.22.88-.22s.63.07.89.22c.25.15.45.38.59.7.14.32.21.74.21,1.25ZM7.57,26.95v-1.11c0-.32-.03-.58-.09-.77-.06-.19-.15-.33-.26-.42-.11-.08-.25-.13-.42-.13s-.3.04-.41.13c-.11.08-.2.22-.26.42-.06.19-.09.45-.09.77v1.11c0,.32.03.58.09.78.06.2.15.34.26.43.11.09.25.13.42.13s.3-.04.42-.13c.11-.09.2-.23.26-.43s.09-.46.09-.78Z"/>
          <path class="cls-7" d="M13.6,28.22v.72h-3.43v-.62l1.65-1.78c.17-.19.31-.36.41-.51.1-.14.17-.27.21-.39.04-.12.06-.23.06-.34,0-.23-.06-.42-.18-.56-.12-.14-.3-.22-.53-.22-.17,0-.31.04-.43.12-.12.08-.21.19-.27.32-.06.14-.09.29-.09.47h-.92c0-.3.07-.57.21-.82s.34-.44.6-.59c.26-.15.57-.22.93-.22.52,0,.92.13,1.2.38.28.25.42.6.42,1.04,0,.22-.05.43-.14.64-.09.21-.22.41-.38.62-.16.21-.35.42-.57.64l-.99,1.1h2.26Z"/>
          <path class="cls-7" d="M18.72,27.09v.72h-3.65l-.04-.56,2.15-3.39h.73l-.79,1.35-1.15,1.87h2.75ZM18.12,23.87v5.07h-.92v-5.07h.92Z"/>
        </g>
      </g>
    </g>
  </g>
</svg>