<?xml version="1.0" encoding="UTF-8"?>
<svg id="Layer_2" data-name="Layer 2" xmlns="http://www.w3.org/2000/svg" xmlns:xlink="http://www.w3.org/1999/xlink" viewBox="0 0 373.02 316.65">
  <defs>
    <style>
      .cls-1 {
        fill: url(#linear-gradient);
      }

      .cls-1, .cls-2 {
        stroke-width: 0px;
      }

      .cls-2 {
        fill: #bcbcbc;
      }
    </style>
    <linearGradient id="linear-gradient" x1="135.39" y1="294.85" x2="230.61" y2="294.85" gradientUnits="userSpaceOnUse">
      <stop offset="0" stop-color="#49a88a"/>
      <stop offset="1" stop-color="#053957"/>
    </linearGradient>
  </defs>
  <g id="Layer_1-2" data-name="Layer 1">
    <g>
      <path class="cls-2" d="M12.69.24C-1.86,41.98-3.18,90.38,8.97,136.51c23.58,89.49,95.45,156.88,178.84,167.7,6.23.81,44.4,5.06,71.92-7.9-9.84-2.93-19.19-8.56-25.42-17.96-4.68-7.07-7.13-15.91-6.89-24.9.34-12.83,7.74-25.24,18.42-30.86,8.98-4.73,18.87-4.14,27.86,1.67,10.88,7.03,16.93,21.11,15.05,35.04-2.21,16.44-11.31,28.75-27.11,36.75,6.52,1.78,13.6,2.5,20.85,1.99,34.47-2.45,68.09-22.66,89.93-54.07l.6.41c-10.37,14.91-23.93,27.79-39.22,37.26-16.1,9.96-33.82,15.88-51.26,17.12-6.79.48-14.49-.09-21.95-2.19-3.49,1.69-7.29,3.18-11.4,4.46-24.28,7.58-51.09,5.26-61.49,3.91-42.51-5.52-82.18-25.13-114.72-56.71-30.61-29.71-53.6-69.32-64.72-111.53C-3.92,90.42-2.6,41.88,12,0l.69.24ZM288.03,259.2c1.84-13.65-4.08-27.45-14.73-34.33-8.76-5.66-18.4-6.24-27.13-1.64-10.45,5.51-17.7,17.66-18.03,30.24-.23,8.84,2.17,17.53,6.77,24.48,5.58,8.43,14.87,14.66,25.87,17.85,13.82-6.8,24.76-18.11,27.25-36.6Z"/>
      <g>
        <path class="cls-1" d="M230.61,301.91s-40.51,10.34-83.79-28.85l-11.43,37.25s50.03,18.81,95.23-8.4Z"/>
        <path class="cls-2" d="M141.14,302.31l.04-.13,11.5-37.47.17.15c22.32,20.22,43.88,26.98,58.03,29.09,15.34,2.29,25.52-.24,25.62-.27l.97-.25-.85.51c-10.32,6.22-21.76,10.53-34,12.81-9.79,1.83-20.1,2.37-30.65,1.61-17.97-1.29-30.58-5.97-30.71-6.01l-.13-.05ZM152.82,265.24l-11.33,36.9c1.38.5,13.55,4.74,30.5,5.95,16.36,1.17,40.62-.32,63.7-13.93-2.8.55-12.03,1.99-24.84.09-9.04-1.35-18.06-4.07-26.82-8.09-10.88-5-21.38-12.04-31.22-20.91Z"/>
      </g>
    </g>
  </g>
</svg>