<?xml version="1.0" encoding="UTF-8"?>
<svg id="Layer_2" data-name="Layer 2" xmlns="http://www.w3.org/2000/svg" xmlns:xlink="http://www.w3.org/1999/xlink" viewBox="0 0 96.4 64.93">
  <defs>
    <style>
      .cls-1 {
        fill: url(#linear-gradient-12);
      }

      .cls-1, .cls-2, .cls-3, .cls-4, .cls-5, .cls-6, .cls-7, .cls-8, .cls-9, .cls-10, .cls-11, .cls-12, .cls-13, .cls-14, .cls-15 {
        stroke-width: 0px;
      }

      .cls-2 {
        fill: url(#linear-gradient);
      }

      .cls-3 {
        fill: url(#linear-gradient-6);
      }

      .cls-4 {
        fill: url(#linear-gradient-15);
      }

      .cls-5 {
        fill: url(#linear-gradient-11);
      }

      .cls-6 {
        fill: url(#linear-gradient-5);
      }

      .cls-7 {
        fill: url(#linear-gradient-13);
      }

      .cls-8 {
        fill: url(#linear-gradient-14);
      }

      .cls-9 {
        fill: url(#linear-gradient-2);
      }

      .cls-10 {
        fill: url(#linear-gradient-7);
      }

      .cls-11 {
        fill: url(#linear-gradient-3);
      }

      .cls-12 {
        fill: url(#linear-gradient-9);
      }

      .cls-13 {
        fill: url(#linear-gradient-8);
      }

      .cls-14 {
        fill: url(#linear-gradient-10);
      }

      .cls-15 {
        fill: url(#linear-gradient-4);
      }
    </style>
    <linearGradient id="linear-gradient" x1="-40.24" y1="-19.12" x2="106.74" y2="46.32" gradientUnits="userSpaceOnUse">
      <stop offset="0" stop-color="#49a88a"/>
      <stop offset="1" stop-color="#053957"/>
    </linearGradient>
    <linearGradient id="linear-gradient-2" x1="-643.3" y1="-288.31" x2="927.99" y2="411.2" xlink:href="#linear-gradient"/>
    <linearGradient id="linear-gradient-3" x1="-135.83" y1="-20.25" x2="185.43" y2="122.77" xlink:href="#linear-gradient"/>
    <linearGradient id="linear-gradient-4" x1="-61.69" y1="25.88" x2="93.77" y2="95.09" xlink:href="#linear-gradient"/>
    <linearGradient id="linear-gradient-5" x1="-55.1" y1="-2" x2="176.46" y2="101.09" xlink:href="#linear-gradient"/>
    <linearGradient id="linear-gradient-6" x1="-21.03" y1="15.33" x2="213.18" y2="119.6" xlink:href="#linear-gradient"/>
    <linearGradient id="linear-gradient-7" x1="-764.25" y1="-309.85" x2="1059.96" y2="502.25" xlink:href="#linear-gradient"/>
    <linearGradient id="linear-gradient-8" x1="26.73" y1="32.67" x2="173.91" y2="98.19" xlink:href="#linear-gradient"/>
    <linearGradient id="linear-gradient-9" x1="14.39" y1="16.88" x2="188.71" y2="94.48" xlink:href="#linear-gradient"/>
    <linearGradient id="linear-gradient-10" x1="-330.05" y1="-133.45" x2="444.71" y2="211.46" xlink:href="#linear-gradient"/>
    <linearGradient id="linear-gradient-11" x1="-251.08" y1="-102.59" x2="459.19" y2="213.6" xlink:href="#linear-gradient"/>
    <linearGradient id="linear-gradient-12" x1="-596.34" y1="-287.39" x2="881.47" y2="370.51" xlink:href="#linear-gradient"/>
    <linearGradient id="linear-gradient-13" x1="-60.53" y1="4.72" x2="138.87" y2="93.49" xlink:href="#linear-gradient"/>
    <linearGradient id="linear-gradient-14" x1="-27.14" y1="-27.51" x2="126.56" y2="40.91" xlink:href="#linear-gradient"/>
    <linearGradient id="linear-gradient-15" x1="-12.79" y1="3.35" x2="140.92" y2="71.78" xlink:href="#linear-gradient"/>
  </defs>
  <g id="Layer_1-2" data-name="Layer 1">
    <g>
      <polygon class="cls-2" points="28.44 10.73 26.06 7.17 22.51 9.56 24.9 13.11 28.44 10.73"/>
      <path class="cls-9" d="M92.97,13.84c-.65-.79-1-1.54-1.06-2.26l-1.56,6.46c1.72,1.44,3.05,2.5,4.01,3.19h-9.12c-.64,0-1.16-.01-1.57-.04-.41-.03-.75-.13-1.02-.32.37-.2.75-.36,1.16-.51l1.71-3.51c-1.17-.67-2.38-1.18-3.63-1.54-1.25-.36-2.7-.53-4.37-.52l-3.07,4.16c.83,0,1.58.1,2.25.31.67.21,1.26.46,1.76.76.51.3.94.6,1.29.91-1.28.14-2.55.23-3.8.26s-32.95.05-33.92.05h-.17c-.52,0-1.08-.2-1.68-.61-.6-.41-1.16-.9-1.69-1.49-.53-.59-.97-1.19-1.33-1.79-.35-.6-.56-1.11-.61-1.53l-1.91,5.45c.59.83,1.15,1.54,1.7,2.11.54.58,1.19,1.12,1.94,1.63-.38,1.04-1.23,2.16-2.54,3.36-1.32,1.2-2.91,2.31-4.78,3.33-1.87,1.02-3.84,1.78-5.91,2.3-1.63.4-3.2.59-4.7.55,4.31.12,7.74.02,10.29-.32,2.54-.33,4.43-.76,5.66-1.29,1.23-.52,2.03-1.02,2.4-1.48,1.3-1.4,2.06-3.08,2.27-5.04.03-.38.04-.77.02-1.16.13.04.56.07,1.07.09v.05c.13,0,.61,0,1.34,0,.33,0,.59,0,.69,0h0c7.2-.04,30.91-.19,31.68-.44.88-.29,1.68-.66,2.4-1.11.71-.45,1.4-.92,2.07-1.42.67-.5,1.36-.96,2.08-1.38.13.41.3.86.5,1.35.2.49.43.96.68,1.42.25.46.53.83.82,1.13.27.27.55.4.85.43v.02h7.81c.62-.98,1.13-1.84,1.53-2.58.41-.74.77-1.52,1.08-2.33.31-.81.47-1.52.47-2.15,0-.78-.3-1.49-.91-2.14-.79-.79-1.51-1.58-2.16-2.37Z"/>
      <path class="cls-11" d="M12.22,40.12c-.4-1.07-.98-2.06-1.75-2.99-.77-.92-1.78-1.56-3.03-1.89-1.13.33-2.26,1.13-3.39,2.4-1.13,1.27-1.88,2.61-2.28,4.01-.05.16-.12.52-.19,1.08-.07.56-.05,1.24.07,2.05.11.8.42,1.65.92,2.55.51.78,1.35,1.52,2.53,2.2,1.17.69,2.3,1.28,3.38,1.79,1.23.61,1.93,1.27,2.1,1.99l.03-.1c.4-1.31.36-2.56-.14-3.77-.5-1.21-1.35-2.13-2.57-2.77-1.42-.72-2.73-1.47-3.92-2.27-1.19-.79-1.85-1.48-1.98-2.07,1.02-.51,1.95-.87,2.77-1.08.83-.21,1.72-.26,2.69-.16,1.15.15,2.1.39,2.85.7.74.32,1.33.65,1.75,1,.42.35.8.79,1.13,1.3-.26-1.59-.59-2.91-.99-3.98Z"/>
      <polygon class="cls-15" points="4.69 56.22 7.22 59.97 10.97 57.44 8.46 53.69 4.69 56.22"/>
      <polygon class="cls-6" points="47.17 41.13 43.62 43.52 46 47.07 48.56 45.36 49.7 47.07 53.26 44.69 50.87 41.13 48.31 42.86 47.17 41.13"/>
      <polygon class="cls-3" points="83.55 60.76 82.36 58.99 78.82 61.37 81.19 64.92 83.84 63.13 85.05 64.92 88.59 62.53 86.2 58.99 83.55 60.76"/>
      <path class="cls-10" d="M87.53,53.13c-.42-.31-.77-.68-1.06-1.11-.29-.43-.53-.84-.72-1.24-.19-.4-.33-.7-.42-.9-.08-.17-.14-.26-.18-.25-.04,0-.07.08-.09.22-.02.14-.05.33-.09.57-.04.24-.1.5-.18.78-.08.28-.2.56-.36.84-.16.28-.37.53-.64.77-.27.24-.6.43-1,.57-.4.14-.89.22-1.46.22h-2.22c-.55,0-1.04-.15-1.46-.46-.42-.31-.77-.68-1.06-1.11-.29-.43-.53-.84-.72-1.24-.19-.4-.33-.7-.42-.9-.08-.17-.14-.26-.18-.25-.04,0-.07.08-.09.22-.02.14-.05.33-.09.57-.04.24-.1.5-.18.78-.08.28-.2.56-.36.84-.16.28-.37.53-.64.77-.27.24-.6.43-1,.57-.4.14-.89.22-1.46.22h-10.64c-.55,0-10.01-.15-10.43-.46-.42-.31-.77-.68-1.06-1.11-.29-.43-.53-.84-.72-1.24-.19-.4-.33-.7-.42-.9-.08-.17-.14-.26-.18-.25-.04,0-.07.08-.09.22-.02.14-.05.33-.08.57-.04.24-.1.5-.18.78-.09.28-.21.56-.37.84-.16.28-.37.53-.63.77-.26.24-.6.43-1,.57-.41.14-.9.22-1.47.22h-4.74c.18-.4.33-.82.45-1.24.38-1.37.46-2.82.45-4.27-.01-1.33-.11-2.66-.28-3.97,0-.05-.02-.1-.03-.14.33.06.67.09,1.02.1v-4.3c-1.05-.55-1.9-1.05-2.57-1.52-.67-.47-1.25-.99-1.75-1.59-.27-.33-.4-.69-.4-1.08s.13-.75.39-1.01c.26-.26.58-.45.95-.57.23-.07.46-.11.7-.13-1.02.02-1.84.41-2.47,1.16-.71.85-1.01,1.89-.91,3.11.13,1.21.52,2.29,1.15,3.25.33,1.7,1.17,5.73,2.53,12.1h-8.27c-2.31,0-4.61,0-6.92.02-2.49.01-5.23-.54-6.24-3.15-.46-1.31-.45-2.71.04-4.19.49-1.48,1.43-2.7,2.83-3.67-2.18,1-3.81,2.13-4.89,3.41-1.08,1.28-1.72,2.57-1.9,3.88-.18,1.31,0,2.53.54,3.65.54,1.12,1.36,2.03,2.45,2.73,1.28.81,2.71,1.18,4.21,1.19,3.01.02,6.01.02,9.02.02,1.32,0,6.14-.22,7.02-.67.89-.45,1.6-1.06,2.14-1.83.11-.16.2-.31.3-.47v3.36h4.7c1.1,0,1.96-.19,2.6-.59.63-.39,1.1-.89,1.39-1.5.3-.61.48-1.26.55-1.95.07-.69.08-1.34.05-1.96.09.32.19.72.29,1.22.1.49.23,1.01.39,1.56.16.54.38,1.06.65,1.55.28.49.64.89,1.09,1.2.39.28,7.84.43,10.07.46h0s10.23,0,10.23,0c1.1,0,1.96-.19,2.6-.59.63-.39,1.1-.89,1.39-1.5.3-.61.48-1.26.55-1.95.07-.69.08-1.34.04-1.96.1.32.2.72.3,1.22.1.49.23,1.01.39,1.56.16.54.38,1.06.65,1.55.28.49.64.89,1.09,1.2.44.31,1,.47,1.67.47h0s1.24,0,1.24,0c1.1,0,1.96-.19,2.6-.59.63-.39,1.1-.89,1.39-1.5.3-.61.48-1.26.55-1.95.07-.69.08-1.34.04-1.96.1.31.2.71.3,1.2.1.49.23,1.01.39,1.56.16.55.38,1.07.65,1.56.28.49.64.89,1.09,1.2.45.31,1.01.47,1.69.47v-4.18h-.54c-.55,0-1.04-.15-1.46-.46Z"/>
      <polygon class="cls-13" points="89.57 61.39 91.96 64.93 95.52 62.55 93.13 59 89.57 61.39"/>
      <path class="cls-12" d="M92.97,46.2c-.65-.79-1-1.54-1.06-2.26l-1.56,6.46c1.72,1.44,3.05,2.5,4.01,3.19h-4.83v4.18h3.43c.62-.98,1.13-1.84,1.53-2.58.41-.74.77-1.52,1.08-2.33.31-.81.47-1.52.47-2.15,0-.78-.3-1.49-.91-2.14-.79-.79-1.51-1.58-2.16-2.37Z"/>
      <path class="cls-14" d="M6.21,18.88c1.59.28,3.26.72,5.02,1.16,1.73.42,3.37.47,4.92.07-.31.29-.61.58-.86.88-1.16,1.37-1.84,2.75-2.03,4.16-.2,1.41,0,2.71.58,3.91.58,1.2,1.46,2.18,2.63,2.92,1.17.74,2.52,1.12,4.04,1.12.82,0,1.78-.11,2.88-.33,1.1-.22,2.19-.64,3.28-1.25,1.09-.61,2.06-1.48,2.9-2.61.85-1.13,1.44-2.59,1.78-4.39.3-1.79.32-3.31.08-4.56-.25-1.25-.65-2.28-1.21-3.07-.56-.8-1.15-1.41-1.77-1.85-.62-.44-1.38-.82-2.29-1.15v.02c-.52.54-.98,1.07-1.36,1.57-.38.5-.76,1.09-1.14,1.76-.38.67-.7,1.42-.96,2.23-.26.81-.39,1.66-.39,2.54,0,.69.15,1.27.45,1.75.3.48.7.86,1.19,1.13.49.28,1.01.46,1.58.54.56.08,1.12.07,1.66-.05.73-.16,1.36-.49,1.9-.98.54-.49.97-1.02,1.29-1.59.04.2.06.4.06.62,0,.66-.15,1.32-.45,2-.3.67-.75,1.29-1.36,1.84-.61.55-1.38,1-2.31,1.35-.93.34-2.02.52-3.26.52s-2.43-.31-3.46-.92c-1.03-.61-1.75-1.44-2.15-2.47-.49-1.4-.48-2.89.05-4.47.3-.9.78-1.71,1.39-2.43.47-.35.88-.76,1.27-1.2.13-.1.24-.21.37-.3-.07.03-.13.07-.2.1.1-.12.21-.22.3-.35-.44.39-1.18.61-2.2.81-1.08.21-2.38.17-3.89-.18-1.52-.35-3.01-.84-4.49-1.32-1.48-.48-2.73-.76-3.74-.8-1.86-.08-3.44.43-4.71,1.46-1.28,1.04-1.78,2.49-1.51,3.71-.05-.12-.04-.3.03-.54.07-.24.26-.5.59-.78.32-.27.89-.53,1.69-.68.96-.18,2.24-.18,3.83.1ZM27.86,21.6c-.64.08-1.38.03-2.23-.13-1.03-.22-1.73-.5-2.1-.86-.37-.35-.54-.71-.52-1.07.03-.36.2-.8.53-1.31,1.45.42,2.63.85,3.54,1.29.91.44,1.71,1,2.37,1.68-.43.18-.97.32-1.6.39Z"/>
      <path class="cls-5" d="M54.88,41.91c1.68.53,3.46.48,5.36.03,1.76-.44,10.61-4.48,12.2-4.75,1.59-.28,2.87-.27,3.83-.1.8.15,1.37.4,1.69.68.08.06.12.13.18.19-.09.21-.24.43-.5.65-.59.51-1.6.84-3.04.99-.55.04-1.05.24-1.49.59-.44.35-.75.78-.93,1.28l-.71,2.28,7.46,1.12-8.44.69,2.19,1.83h.02c.89-.04,1.67-.1,2.32-.18.65-.08,1.3-.21,1.95-.39.65-.18,1.19-.43,1.64-.74.45-.31.67-.72.67-1.21,0-.52-.17-.95-.52-1.26-.34-.32-.75-.56-1.23-.72-.48-.16-.93-.28-1.36-.35-.43-.07-.73-.12-.92-.15-.98-.2-1.98-.35-3-.46.14-.33.52-.5,1.12-.51.6-.01,1.26.01,1.99.06.72.05,1.35,0,1.87-.14.55-.2.95-.46,1.18-.79.23-.33.35-.69.36-1.07,0-.36-.04-.7-.13-1.02,0-1.06-.51-2.2-1.57-3.07-.03-.02-.05-.04-.08-.06-.92-.72-2.01-1.17-3.16-1.33-1.28-.18-2.38.16-3.55.63-1.71.68-3.4,1.42-5.1,2.14-1.23.53-2.47,1.13-3.74,1.55-1.48.48-2.97.97-4.49,1.32-1.52.35-2.81.4-3.89.18-1.02-.2-1.76-.41-2.2-.81,1.01,1.34,2.36,2.39,4.03,2.92Z"/>
      <path class="cls-1" d="M58.6,10.48c4.85-1.48,9.46-2.98,13.84-3.85,4.38-.89,7.91-.88,10.58-.42,2.24.38,3.82,1.04,4.75,1.63.27.17.5.33.7.49l1.22,1.81s0,.08-.02.12c.02-.03.02-.06.03-.1l.14.2,2.06-1.39.94,1.39,3.54-2.37-2.37-3.56-2.08,1.4-.94-1.4-2.78,1.87c-.79-.89-1.88-1.77-3.29-2.54-3.67-1.98-8.09-2.72-13.27-1.97-2.83.39-6.28,1.35-10.33,2.77-4.05,1.41-8.16,2.85-12.32,3.79-4.16.95-7.74,1.03-10.74.44-2.83-.55-4.88-1.31-6.14-2.22,2.97,2.79,6.82,4.89,11.54,5.57,4.73.7,9.7-.11,14.93-1.67Z"/>
      <path class="cls-7" d="M25.25,49.24h.02c.89-.04,1.67-.1,2.32-.18.65-.08,1.3-.21,1.95-.39.65-.18,1.19-.43,1.64-.74.45-.31.67-.72.67-1.21,0-.52-.17-.95-.52-1.26-.34-.32-.76-.56-1.23-.72-.48-.16-.93-.28-1.36-.35-.43-.07-.73-.12-.92-.15-.98-.19-1.98-.35-3-.46.14-.33.52-.5,1.12-.51.6-.01,1.26.01,1.99.06.72.05,1.35,0,1.87-.14.55-.2.95-.46,1.18-.79.23-.33.35-.69.36-1.07.01-.38-.04-.74-.15-1.09-.11-.35-.22-.64-.33-.87-.11-.23-.18-.36-.2-.38.29.47.14.97-.45,1.48-.59.51-1.6.84-3.04.99-.55.04-1.05.24-1.49.59-.44.35-.75.78-.93,1.28l-.71,2.28,7.46,1.12-8.44.69,2.19,1.83Z"/>
      <path class="cls-8" d="M39.11,3.98c.18.05.35.14.5.25.26.18.49.27.71-.09.91.87,1.48,1.86,1.79,3.01.06.21.19.4.28.59.13-.21.34-.4.37-.62.14-1.04.21-2.08.36-3.12.08-.58.19-1.18.42-1.71.23-.55.55-.57,1.03-.2.19.14.36.31.6.52.11-.35.2-.63.29-.91.17-.48.03-.84-.34-1.17-.89-.8-1.67-.67-2.06.47-.23.66-.32,1.38-.44,2.07-.1.56-.14,1.14-.21,1.71-.15-.12-.21-.26-.29-.39-.31-.5-.6-1.03-.96-1.5-.48-.63-1.09-1.08-1.91-1.17-.29-.03-.5.07-.57.34-.08.33-.12.68-.15,1.03-.04.44.12.76.57.91Z"/>
      <path class="cls-4" d="M53.47,34.84c.18.05.35.14.5.25.26.19.49.27.71-.09.91.87,1.48,1.86,1.79,3.01.06.21.19.4.28.59.13-.21.34-.4.37-.62.14-1.04.21-2.08.36-3.12.08-.58.19-1.18.42-1.71.23-.55.55-.57,1.03-.2.19.14.36.31.6.52.11-.35.2-.63.29-.91.17-.48.03-.84-.34-1.17-.89-.8-1.67-.67-2.06.47-.23.66-.32,1.38-.44,2.07-.1.56-.14,1.14-.21,1.71-.15-.12-.21-.26-.29-.39-.31-.5-.6-1.03-.96-1.5-.48-.63-1.09-1.08-1.91-1.17-.29-.03-.5.07-.57.34-.08.33-.12.68-.15,1.03-.04.44.12.76.57.91Z"/>
    </g>
  </g>
</svg>